<svg id="church" viewBox="0 0 443 728" version="1.1" xmlns="http://www.w3.org/2000/svg" xmlns:xlink="http://www.w3.org/1999/xlink">
        <g id="Page-1" stroke="none" stroke-width="0.25" fill="none"> <!-- fill-rule="evenodd" stroke-dasharray="80,80,80,80"> -->
            <g id="A4Poster" transform="translate(1.000000, 1.000000)" class="path" stroke="#8F8F8F">

            <g id="Group">
                <polygon class="path" stroke="#8F8F8F" stroke-width="0.25" id="Shape" points="20.6 254.9 220.6 30.4 420.6 254.9 420.6 270.4 20.6 270.4"></polygon>
                <polygon class="path" stroke="#8F8F8F" stroke-width="0.25" id="Shape" points="0.6 290.4 0.6 247.3 220.6 0.3 440.6 247.3 440.6 290.4"></polygon>
                <polygon class="path" stroke="#8F8F8F" stroke-width="0.25" id="Shape" points="20.6 254.9 220.6 30.4 420.6 254.9 420.6 270.4 20.6 270.4"></polygon>
            </g>
            <path class="path" stroke="#8F8F8F" stroke-width="0.25" d="M149,212.6 L150,208.5 C150,201.8 157.4,196.4 164,196.4 C170.6,196.4 179,201.8 179,208.5 L179,205 C179,191.1 165.6,179.9 149,179.9 C132.4,179.9 119,191.1 119,205 L119,208.5 C119,201.8 127.4,196.4 134,196.4 C140.6,196.4 148,201.8 148,208.5 L149,212.6 Z" id="Shape"></path>
            <path class="path" stroke="#8F8F8F" stroke-width="0.25" d="M131,206.5 C124.4,206.5 119,211.9 119,218.6 L119,247.7 L143,247.7 L143,218.6 C143,211.9 137.6,206.5 131,206.5 Z" id="Shape"></path>
            <path class="path" stroke="#8F8F8F" stroke-width="0.25" d="M167,206.5 C160.4,206.5 155,211.9 155,218.6 L155,247.7 L179,247.7 L179,218.6 C179,211.9 173.6,206.5 167,206.5 Z" id="Shape"></path>
            <path class="path" stroke="#8F8F8F" stroke-width="0.25" d="M155,218.5 C155,211.8 160.4,206.4 167,206.4 C173.6,206.4 179,211.8 179,218.5 L179,208.5 C179,201.8 170.6,196.4 164,196.4 C157.4,196.4 150,201.8 150,208.5 L149,212.6 L148,208.5 C148,201.8 140.6,196.4 134,196.4 C127.4,196.4 119,201.8 119,208.5 L119,218.5 C119,211.8 124.4,206.4 131,206.4 C137.6,206.4 143,211.8 143,218.5 L155,218.5 Z" id="Shape"></path>
            <rect class="path" stroke="#8F8F8F" stroke-width="0.25" id="Rectangle-path" x="119" y="247.6" width="60" height="12.3"></rect>
            <rect class="path" stroke="#8F8F8F" stroke-width="0.25" id="Rectangle-path" x="143" y="218.5" width="12" height="29.1"></rect>
            <circle class="path" stroke="#8F8F8F" stroke-width="0.25" id="Oval" cx="220.6" cy="139.2" r="30"></circle>
            <circle class="path" stroke="#8F8F8F" stroke-width="0.25" id="Oval" cx="220.6" cy="139.2" r="26"></circle>
            <path class="path" stroke="#8F8F8F" stroke-width="0.25" d="M20.7,265.4 L46.7,265.4" id="Shape"></path>
            <path class="path" stroke="#8F8F8F" stroke-width="0.25" d="M394.6,265.4 L420.6,265.4" id="Shape"></path>
            <path class="path" stroke="#8F8F8F" stroke-width="0.25" d="M220.7,31 L20.7,255.5 L20.8,266 L46.3,266 L46.3,250 C46.3,243.4 50.9,238 56.5,238 C61,238 64.8,241.4 66.2,246.1 L66.8,246.1 L66.8,246 L69.7,246 L69.7,222 C69.7,215.4 74.3,210 79.9,210 C84.8,210 88.9,214 89.9,219.3 L89.9,219.3 L90.1,219.3 L90.1,219.1 L93,219.1 L93,195.1 C93,188.5 97.6,183.1 103.2,183.1 C108.1,183.1 112.2,187.2 113.2,192.6 L113.4,192.6 L113.4,192.4 L116.3,192.4 L116.3,168.4 C116.3,161.8 120.9,156.4 126.5,156.4 C131.4,156.4 135.5,160.5 136.5,165.9 L136.7,165.9 L136.7,165.7 L139.6,165.7 L139.6,141.7 C139.6,135.1 144.2,129.7 149.8,129.7 C154.6,129.7 158.7,133.6 159.8,138.9 L160.1,138.9 L160.1,138.8 L163,138.8 L163,114.8 C163,108.2 167.6,102.8 173.2,102.8 C178.1,102.8 182.2,106.8 183.2,112.2 L183.5,112.2 L183.5,112 L186.4,112 L186.4,88 C186.4,81.4 191,76 196.6,76 C201.5,76 205.5,80 206.6,85.3 L206.8,85.3 C206.8,85.3 206.9,85.3 206.9,85.4 L206.9,85.2 L209.8,85.2 L209.8,61.2 C209.8,54.6 214.4,49.2 220,49.2 C225.7,49.2 230.2,54.6 230.2,61.2 L230.2,85.2 L233.1,85.2 L233.1,85.5 C233.2,85.5 233.3,85.4 233.4,85.4 C234.4,80 238.5,76 243.4,76 C249.1,76 253.6,81.4 253.6,88 L253.6,112 L256.5,112 L256.5,112.2 L256.8,112.2 C257.8,106.8 261.9,102.8 266.8,102.8 C272.5,102.8 277,108.2 277,114.8 L277,138.8 L279.9,138.8 L279.9,138.9 L280.2,138.9 L280.2,138.9 C281.3,133.6 285.3,129.7 290.2,129.7 C295.9,129.7 300.4,135.1 300.4,141.7 L300.4,165.7 L303.3,165.7 L303.3,165.9 L303.4,165.9 L303.5,165.9 C304.5,160.5 308.6,156.4 313.5,156.4 C319.2,156.4 323.7,161.8 323.7,168.4 L323.7,192.4 L326.6,192.4 L326.6,192.6 L326.8,192.6 C327.8,187.2 331.9,183.1 336.8,183.1 C342.5,183.1 347,188.5 347,195.1 L347,219.1 L349.3,219.1 L349.9,219.1 L350.3,219.1 C351.4,213.9 355.4,210 360.2,210 C365.9,210 370.4,215.4 370.4,222 L370.4,246 L373.3,246 L373.3,246.1 L373.9,246.1 C375.3,241.4 379.1,238 383.6,238 C389.3,238 393.8,243.4 393.8,250 L393.8,266 L419.4,266 L419.4,255.5 L220.7,31 Z" id="Shape"></path>
            <rect class="path" stroke="#8F8F8F" stroke-width="0.25" id="Rectangle-path" x="0.7" y="295.4" width="439.9" height="430"></rect>
            <rect class="path" stroke="#8F8F8F" stroke-width="0.25" id="Rectangle-path" x="0.7" y="290.4" width="439.9" height="5"></rect>
            <rect class="path" stroke="#8F8F8F" stroke-width="0.25" id="Rectangle-path" x="46.3" y="259.9" width="348.7" height="5.5"></rect>
            <path class="path" stroke="#8F8F8F" stroke-width="0.25" d="M220.6,212.6 L221.6,208.5 C221.6,201.8 229,196.4 235.6,196.4 C242.2,196.4 250.6,201.8 250.6,208.5 L250.6,205 C250.6,191.1 237.2,179.9 220.6,179.9 C204,179.9 190.6,191.1 190.6,205 L190.6,208.5 C190.6,201.8 199,196.4 205.6,196.4 C212.2,196.4 219.6,201.8 219.6,208.5 L220.6,212.6 Z" id="Shape"></path>
            <path class="path" stroke="#8F8F8F" stroke-width="0.25" d="M202.6,206.5 C196,206.5 190.6,211.9 190.6,218.6 L190.6,247.7 L214.6,247.7 L214.6,218.6 C214.6,211.9 209.2,206.5 202.6,206.5 Z" id="Shape"></path>
            <path class="path" stroke="#8F8F8F" stroke-width="0.25" d="M238.6,206.5 C232,206.5 226.6,211.9 226.6,218.6 L226.6,247.7 L250.6,247.7 L250.6,218.6 C250.6,211.9 245.2,206.5 238.6,206.5 Z" id="Shape"></path>
            <path class="path" stroke="#8F8F8F" stroke-width="0.25" d="M226.6,218.5 C226.6,211.8 232,206.4 238.6,206.4 C245.2,206.4 250.6,211.8 250.6,218.5 L250.6,208.5 C250.6,201.8 242.2,196.4 235.6,196.4 C229,196.4 221.6,201.8 221.6,208.5 L220.6,212.6 L219.6,208.5 C219.6,201.8 212.2,196.4 205.6,196.4 C199,196.4 190.6,201.8 190.6,208.5 L190.6,218.5 C190.6,211.8 196,206.4 202.6,206.4 C209.2,206.4 214.6,211.8 214.6,218.5 L226.6,218.5 Z" id="Shape"></path>
            <rect class="path" stroke="#8F8F8F" stroke-width="0.25" id="Rectangle-path" x="190.6" y="247.6" width="60" height="12.3"></rect>
            <rect class="path" stroke="#8F8F8F" stroke-width="0.25" id="Rectangle-path" x="214.6" y="218.5" width="12" height="29.1"></rect>
            <path class="path" stroke="#8F8F8F" stroke-width="0.25" d="M292.6,212.6 L293.6,208.5 C293.6,201.8 301,196.4 307.6,196.4 C314.2,196.4 322.6,201.8 322.6,208.5 L322.6,205 C322.6,191.1 309.2,179.9 292.6,179.9 C276,179.9 262.6,191.1 262.6,205 L262.6,208.5 C262.6,201.8 271,196.4 277.6,196.4 C284.2,196.4 291.6,201.8 291.6,208.5 L292.6,212.6 Z" id="Shape"></path>
            <path class="path" stroke="#8F8F8F" stroke-width="0.25" d="M274.6,206.5 C268,206.5 262.6,211.9 262.6,218.6 L262.6,247.7 L286.6,247.7 L286.6,218.6 C286.6,211.9 281.2,206.5 274.6,206.5 Z" id="Shape"></path>
            <path class="path" stroke="#8F8F8F" stroke-width="0.25" d="M310.6,206.5 C304,206.5 298.6,211.9 298.6,218.6 L298.6,247.7 L322.6,247.7 L322.6,218.6 C322.6,211.9 317.2,206.5 310.6,206.5 Z" id="Shape"></path>
            <path class="path" stroke="#8F8F8F" stroke-width="0.25" d="M298.6,218.5 C298.6,211.8 304,206.4 310.6,206.4 C317.2,206.4 322.6,211.8 322.6,218.5 L322.6,208.5 C322.6,201.8 314.2,196.4 307.6,196.4 C301,196.4 293.6,201.8 293.6,208.5 L292.6,212.6 L291.6,208.5 C291.6,201.8 284.2,196.4 277.6,196.4 C271,196.4 262.6,201.8 262.6,208.5 L262.6,218.5 C262.6,211.8 268,206.4 274.6,206.4 C281.2,206.4 286.6,211.8 286.6,218.5 L298.6,218.5 Z" id="Shape"></path>
            <rect class="path" stroke="#8F8F8F" stroke-width="0.25" id="Rectangle-path" x="262.6" y="247.6" width="60" height="12.3"></rect>
            <rect class="path" stroke="#8F8F8F" stroke-width="0.25" id="Rectangle-path" x="286.6" y="218.5" width="12" height="29.1"></rect>
            <path class="path" stroke="#8F8F8F" stroke-width="0.25" d="M260.6,211.5 L252.6,211.5 L252.6,205 C252.6,190.1 238.2,177.9 220.6,177.9 C203,177.9 188.6,190.1 188.6,205 L188.6,211.5 L181,211.5 L181,205 C181,190.1 166.6,177.9 149,177.9 C131.4,177.9 117,190 117,205 L117,211.4 L115,211.4 L115,205 C115,189 130.3,175.9 149,175.9 C167.7,175.9 183,189 183,205 L183,209.5 L186.7,209.5 L186.7,205 C186.7,189 202,175.9 220.7,175.9 C239.4,175.9 254.7,189 254.7,205 L254.7,209.5 L258.7,209.5 L258.7,205 C258.7,189 274,175.9 292.7,175.9 C311.4,175.9 326.7,189 326.7,205 L326.7,211.4 L324.7,211.4 L324.7,205 C324.7,190.1 310.3,177.9 292.7,177.9 C275.1,177.9 260.7,190.1 260.7,205 L260.7,211.5 L260.6,211.5 Z" id="Shape"></path>
            <path class="path" stroke="#8F8F8F" stroke-width="0.25" d="M314.1,301.4 C309.4,301.4 305.6,305.2 305.6,310 L305.6,316.1 L304,316.1 L304,310 C304,305.3 300.2,301.4 295.5,301.4 C290.8,301.4 287,305.2 287,310 L287,316.1 L285.4,316.1 L285.4,310 C285.4,305.3 281.6,301.4 276.9,301.4 C272.2,301.4 268.4,305.2 268.4,310 L268.4,316.1 L266.8,316.1 L266.8,310 C266.8,305.3 263,301.4 258.3,301.4 C253.6,301.4 249.8,305.2 249.8,310 L249.8,316.1 L248,316.1 L248,310 C248,305.3 244.2,301.4 239.5,301.4 C234.8,301.4 231,305.2 231,310 L231,316.1 L229.4,316.1 L229.4,310 C229.4,305.3 225.6,301.4 220.9,301.4 C216.2,301.4 212.4,305.2 212.4,310 L212.4,316.1 L210.8,316.1 L210.8,310 C210.8,305.3 207,301.4 202.3,301.4 C197.6,301.4 193.8,305.2 193.8,310 L193.8,316.1 L192,316.1 L192,310 C192,305.3 188.2,301.4 183.5,301.4 C178.8,301.4 175,305.2 175,310 L175,316.1 L173.4,316.1 L173.4,310 C173.4,305.3 169.6,301.4 164.9,301.4 C160.2,301.4 156.4,305.2 156.4,310 L156.4,316.1 L154.8,316.1 L154.8,310 C154.8,305.3 151,301.4 146.3,301.4 C141.6,301.4 137.8,305.2 137.8,310 L137.8,316.1 L136,316.1 L136,310 C136,305.3 132.2,301.4 127.5,301.4 C122.8,301.4 119,305.2 119,310 L119,316.1 L119,330.7 L119,519 L322.7,519 L322.7,330.6 L322.7,316 L322.7,309.9 C322.6,305.2 318.8,301.4 314.1,301.4 Z" id="Shape"></path>
            <circle class="path" stroke="#8F8F8F" stroke-width="0.25" id="Oval" cx="220.8" cy="410.1" r="82.8"></circle>
            <circle class="path" stroke="#8F8F8F" stroke-width="0.25" id="Oval" cx="220.8" cy="410.1" r="80.6"></circle>
            <circle class="path" stroke="#8F8F8F" stroke-width="0.25" id="Oval" cx="220.8" cy="410.1" r="77.8"></circle>
            <circle class="path" stroke="#8F8F8F" stroke-width="0.25" id="Oval" cx="220.8" cy="410.1" r="73.6"></circle>
            <circle class="path" stroke="#8F8F8F" stroke-width="0.25" id="Oval" cx="220.8" cy="410.1" r="22.2"></circle>
            <circle class="path" stroke="#8F8F8F" stroke-width="0.25" id="Oval" cx="220.8" cy="410.1" r="19.8"></circle>
            <circle class="path" stroke="#8F8F8F" stroke-width="0.25" id="Oval" cx="220.8" cy="410.1" r="19.1"></circle>
            <circle class="path" stroke="#8F8F8F" stroke-width="0.25" id="Oval" cx="220.7" cy="359" r="20.9"></circle>
            <circle class="path" stroke="#8F8F8F" stroke-width="0.25" id="Oval" cx="184.6" cy="374.1" r="20.9"></circle>
            <circle class="path" stroke="#8F8F8F" stroke-width="0.25" id="Oval" cx="169.7" cy="410.3" r="20.9"></circle>
            <circle class="path" stroke="#8F8F8F" stroke-width="0.25" id="Oval" cx="184.7" cy="446.4" r="20.9"></circle>
            <circle class="path" stroke="#8F8F8F" stroke-width="0.25" id="Oval" cx="220.9" cy="461.3" r="20.9"></circle>
            <circle class="path" stroke="#8F8F8F" stroke-width="0.25" id="Oval" cx="257" cy="446.2" r="20.9"></circle>
            <circle class="path" stroke="#8F8F8F" stroke-width="0.25" id="Oval" cx="271.9" cy="410" r="20.9"></circle>
            <circle class="path" stroke="#8F8F8F" stroke-width="0.25" id="Oval" cx="256.8" cy="373.9" r="20.9"></circle>
            <circle class="path" stroke="#8F8F8F" stroke-width="0.25" id="Oval" cx="220.7" cy="359" r="18.7"></circle>
            <circle class="path" stroke="#8F8F8F" stroke-width="0.25" id="Oval" cx="220.7" cy="359" r="18"></circle>
            <circle class="path" stroke="#8F8F8F" stroke-width="0.25" id="Oval" cx="184.6" cy="374.1" r="18.7"></circle>
            <circle class="path" stroke="#8F8F8F" stroke-width="0.25" id="Oval" cx="184.6" cy="374.1" r="18"></circle>
            <circle class="path" stroke="#8F8F8F" stroke-width="0.25" id="Oval" cx="169.7" cy="410.3" r="18.7"></circle>
            <circle class="path" stroke="#8F8F8F" stroke-width="0.25" id="Oval" cx="169.7" cy="410.3" r="18"></circle>
            <circle class="path" stroke="#8F8F8F" stroke-width="0.25" id="Oval" cx="184.7" cy="446.4" r="18.7"></circle>
            <circle class="path" stroke="#8F8F8F" stroke-width="0.25" id="Oval" cx="184.7" cy="446.4" r="18"></circle>
            <circle class="path" stroke="#8F8F8F" stroke-width="0.25" id="Oval" cx="220.9" cy="461.3" r="18.7"></circle>
            <circle class="path" stroke="#8F8F8F" stroke-width="0.25" id="Oval" cx="220.9" cy="461.3" r="18"></circle>
            <circle class="path" stroke="#8F8F8F" stroke-width="0.25" id="Oval" cx="257" cy="446.2" r="18.7"></circle>
            <circle class="path" stroke="#8F8F8F" stroke-width="0.25" id="Oval" cx="257" cy="446.2" r="18"></circle>
            <circle class="path" stroke="#8F8F8F" stroke-width="0.25" id="Oval" cx="271.9" cy="410" r="18.7"></circle>
            <circle class="path" stroke="#8F8F8F" stroke-width="0.25" id="Oval" cx="271.9" cy="410" r="18"></circle>
            <circle class="path" stroke="#8F8F8F" stroke-width="0.25" id="Oval" cx="256.8" cy="373.9" r="18.7"></circle>
            <circle class="path" stroke="#8F8F8F" stroke-width="0.25" id="Oval" cx="256.8" cy="373.9" r="18"></circle>
            <circle class="path" stroke="#8F8F8F" stroke-width="0.25" id="Oval" cx="220.8" cy="410.1" r="19.1"></circle>
            <path class="path" stroke="#8F8F8F" stroke-width="0.25" d="M297.6,411.4 L297.6,409 L297.6,409 L297.6,408.3 L297.6,408 L297.6,408 L297.5,405.6 L297.5,405.6 L297.4,404.9 L297.4,404.5 L297.4,404.5 L297.2,402.2 L297.2,402.2 L297.1,401.5 L297.1,401.1 L297.1,401.1 L296.8,398.8 L296.8,398.8 L296.7,398.2 L296.6,397.8 L296.6,397.8 L296.2,395.5 L296.2,395.5 L296.1,394.9 L296,394.5 L296,394.5 L295.5,392.2 L295.5,392.2 L295.3,391.6 L295.2,391.2 L295.2,391.2 L294.6,388.9 L294.6,388.9 L294.4,388.3 L294.3,387.9 L294.3,387.9 L293.6,385.7 L293.6,385.7 L293.4,385.1 L293.3,384.7 L293.3,384.7 L292.5,382.5 L292.5,382.5 L292.2,381.9 L292,381.5 L292,381.5 L291,379 L291,379 L290.7,378.4 L290.5,378 L290.5,378 L289.5,375.9 L289.5,375.9 L289.2,375.3 L289,374.9 L289,374.9 L287.9,372.8 L287.9,372.8 L287.6,372.2 L287.4,371.8 L287.4,371.8 L286.2,369.8 L286.2,369.8 L285.8,369.3 L285.6,368.9 L285.6,368.9 L284.3,366.9 L284.3,366.9 L283.9,366.4 L283.7,366 L283.7,366 L282.3,364.1 L282.3,364.1 L281.9,363.6 L281.6,363.3 L281.6,363.3 L280.1,361.5 L280.1,361.5 L279.7,361 L279.4,360.7 L279.4,360.7 L277.8,358.9 L277.8,358.9 L277.3,358.4 L277,358.1 L277,358.1 L275.4,356.4 L275.4,356.4 L274.9,355.9 L274.6,355.6 L274.6,355.6 L272.9,354 L272.9,354 L272.4,353.6 L272.1,353.3 L272.1,353.3 L270.3,351.7 L270.3,351.7 L269.8,351.3 L269.5,351 L269.5,351 L267.7,349.5 L267.7,349.5 L267.2,349.1 L266.9,348.8 L266.9,348.8 L265,347.4 L265,347.4 L264.5,347 L264.2,346.7 L264.2,346.7 L262.2,345.4 L262.2,345.4 L261.6,345.1 L261.2,344.9 L261.2,344.9 L259.2,343.7 L259.2,343.7 L258.6,343.4 L258.2,343.2 L258.2,343.2 L256.1,342.1 L256.1,342.1 L255.5,341.8 L255.1,341.6 L255.1,341.6 L253,340.6 L253,340.6 L252.4,340.3 L252,340.1 L252,340.1 L249.8,339.2 L249.8,339.2 L249.2,339 L248.8,338.8 L248.8,338.8 L246.6,338 L246.6,338 L246,337.8 L245.6,337.6 L245.6,337.6 L243.4,336.9 L243.4,336.9 L242.8,336.7 L242.4,336.6 L242.4,336.6 L240.1,336 L240.1,336 L239.5,335.9 L239.1,335.8 L239.1,335.8 L236.8,335.3 L236.8,335.3 L236.2,335.2 L235.8,335.1 L235.8,335.1 L233.5,334.7 L233.5,334.7 L232.8,334.6 L232.4,334.5 L232.4,334.5 L230.1,334.2 L230.1,334.2 L229.4,334.1 L229,334 L229,334 L226.7,333.8 L226.7,333.8 L226,333.8 L225.6,333.8 L225.6,333.8 L223.2,333.7 L223.2,333.7 L222.5,333.7 L222.1,333.7 L222.1,333.7 L219.7,333.7 L219.7,333.7 L219,333.7 L218.6,333.7 L218.6,333.7 L216.2,333.8 L216.2,333.8 L215.5,333.9 L215.1,333.9 L215.1,333.9 L212.8,334.1 L212.8,334.1 L212.1,334.2 L211.7,334.2 L211.7,334.2 L209.4,334.5 L209.4,334.5 L208.8,334.6 L208.4,334.7 L208.4,334.7 L206.1,335.1 L206.1,335.1 L205.5,335.2 L205.1,335.3 L205.1,335.3 L202.8,335.8 L202.8,335.8 L202.2,336 L201.8,336.1 L201.8,336.1 L199.5,336.7 L199.5,336.7 L198.9,336.9 L198.5,337 L198.5,337 L196.3,337.7 L196.3,337.7 L195.7,337.9 L195.3,338 L195.3,338 L193.1,338.8 L193.1,338.8 L192.5,339.1 L192.1,339.3 L192.1,339.3 L189.9,340.2 L189.9,340.2 L189.3,340.5 L188.9,340.7 L188.9,340.7 L186.8,341.7 L186.8,341.7 L186.2,342 L185.8,342.2 L185.8,342.2 L183.7,343.3 L183.7,343.3 L183.1,343.6 L182.7,343.8 L182.7,343.8 L180.7,345 L180.7,345 L180.2,345.4 L179.8,345.6 L179.8,345.6 L177.8,346.9 L177.8,346.9 L177,347 L176.6,347.2 L176.6,347.2 L174.7,348.6 L174.7,348.6 L174.2,349 L173.8,349.3 L173.8,349.3 L172,350.8 L172,350.8 L171.5,351.2 L171.2,351.5 L171.2,351.5 L169.4,353.1 L169.4,353.1 L168.9,353.6 L168.6,353.9 L168.6,353.9 L166.9,355.5 L166.9,355.5 L166.4,356 L166.1,356.3 L166.1,356.3 L164.5,358 L164.5,358 L164.1,358.5 L163.8,358.8 L163.8,358.8 L162.2,360.6 L162.2,360.6 L161.8,361.1 L161.5,361.4 L161.5,361.4 L160,363.2 L160,363.2 L159.6,363.7 L159.3,364 L159.3,364 L157.9,365.9 L157.9,365.9 L157.5,366.4 L157.2,366.7 L157.2,366.7 L155.9,368.7 L155.9,368.7 L155.6,369.3 L155.4,369.7 L155.4,369.7 L154.2,371.7 L154.2,371.7 L153.9,372.3 L153.7,372.7 L153.7,372.7 L152.6,374.8 L152.6,374.8 L152.3,375.4 L152.1,375.8 L152.1,375.8 L151.1,377.9 L151.1,377.9 L150.8,378.5 L150.6,378.9 L150.6,378.9 L149.7,381.1 L149.7,381.1 L149.5,381.7 L149.3,382.1 L149.3,382.1 L148.5,384.3 L148.5,384.3 L148.3,384.9 L148.1,385.3 L148.1,385.3 L147.4,387.5 L147.4,387.5 L147.2,388.1 L147.1,388.5 L147.1,388.5 L146.5,390.8 L146.5,390.8 L146.4,391.4 L146.3,391.8 L146.3,391.8 L145.8,394.1 L145.8,394.1 L145.7,394.7 L145.6,395.1 L145.6,395.1 L145.2,397.4 L145.2,397.4 L145.1,398.1 L145,398.5 L145,398.5 L144.7,400.8 L144.7,400.8 L144.6,401.5 L144.5,401.9 L144.5,401.9 L144.3,404.2 L144.3,404.2 L144.3,404.9 L144.3,405.3 L144.3,405.3 L144.2,407.7 L144.2,407.7 L144.2,408.4 L144.2,408.8 L144.2,408.8 L144.2,411.2 L144.2,411.2 L144.2,411.9 L144.2,412.3 L144.2,412.3 L144.3,414.7 L144.3,414.7 L144.4,415.4 L144.4,415.8 L144.4,415.8 L144.6,418.1 L144.6,418.1 L144.7,418.8 L144.7,419.2 L144.7,419.2 L145,421.5 L145,421.5 L145.1,422.1 L145.2,422.5 L145.2,422.5 L145.6,424.8 L145.6,424.8 L145.7,425.4 L145.8,425.8 L145.8,425.8 L146.3,428.1 L146.3,428.1 L146.5,428.7 L146.6,429.1 L146.6,429.1 L147.2,431.4 L147.2,431.4 L147.4,432 L147.5,432.4 L147.5,432.4 L148.2,434.6 L148.2,434.6 L148.4,435.2 L148.5,435.6 L148.5,435.6 L149.3,437.8 L149.3,437.8 L149.6,438.4 L149.8,438.8 L149.8,438.8 L150.7,441 L150.7,441 L151,441.6 L151.2,442 L151.2,442 L152.2,444.1 L152.2,444.1 L152.5,444.7 L152.7,445.1 L152.7,445.1 L153.8,447.2 L153.8,447.2 L154.1,447.8 L154.3,448.2 L154.3,448.2 L155.5,450.2 L155.5,450.2 L155.9,450.7 L156.1,451.1 L156.1,451.1 L157.4,453.1 L157.4,453.1 L157.8,453.6 L158,454 L158,454 L159.4,455.9 L159.4,455.9 L159.8,456.4 L160.1,456.8 L160.1,456.8 L161.6,458.6 L161.6,458.6 L162,459.1 L162.3,459.4 L162.3,459.4 L163.9,461.2 L163.9,461.2 L164.4,461.7 L164.7,462 L164.7,462 L166.3,463.7 L166.3,463.7 L166.8,464.2 L167.1,464.5 L167.1,464.5 L168.8,466.1 L168.8,466.1 L169.3,466.5 L169.6,466.8 L169.6,466.8 L171.4,468.4 L171.4,468.4 L171.9,468.8 L172.2,469.1 L172.2,469.1 L174,470.6 L174,470.6 L174.5,471 L174.8,471.3 L174.8,471.3 L176.7,472.7 L176.7,472.7 L177.2,473.1 L177.5,473.4 L177.5,473.4 L179.5,474.7 L179.5,474.7 L180.1,475 L180.5,475.2 L180.5,475.2 L182.5,476.4 L182.5,476.4 L183.1,476.7 L183.5,476.9 L183.5,476.9 L185.6,478 L185.6,478 L186.2,478.3 L186.6,478.5 L186.6,478.5 L188.7,479.5 L188.7,479.5 L189.3,479.8 L189.7,480 L189.7,480 L191.9,480.9 L191.9,480.9 L192.5,481.1 L192.9,481.3 L192.9,481.3 L195.1,482.1 L195.1,482.1 L195.7,482.3 L196.1,482.5 L196.1,482.5 L198.3,483.2 L198.3,483.2 L198.9,483.4 L199.3,483.5 L199.3,483.5 L201.6,484.1 L201.6,484.1 L202.2,484.2 L202.6,484.3 L202.6,484.3 L204.9,484.8 L204.9,484.8 L205.5,484.9 L205.9,485 L205.9,485 L208.2,485.4 L208.2,485.4 L208.9,485.5 L209.3,485.6 L209.3,485.6 L211.6,485.9 L211.6,485.9 L212.3,486 L212.7,486.1 L212.7,486.1 L215,486.3 L215,486.3 L215.7,486.3 L216.1,486.3 L216.1,486.3 L218.5,486.4 L218.5,486.4 L219.2,486.4 L219.6,486.4 L219.6,486.4 L222,486.4 L222,486.4 L222.7,486.4 L223.1,486.4 L223.1,486.4 L225.5,486.3 L225.5,486.3 L226.2,486.2 L226.6,486.2 L226.6,486.2 L228.9,486 L228.9,486 L229.6,485.9 L230,485.9 L230,485.9 L232.3,485.6 L232.3,485.6 L232.9,485.5 L233.3,485.4 L233.3,485.4 L235.6,485 L235.6,485 L236.2,484.9 L236.6,484.8 L236.6,484.8 L238.9,484.3 L238.9,484.3 L239.5,484.1 L239.9,484 L239.9,484 L242.2,483.4 L242.2,483.4 L242.8,483.2 L243.2,483.1 L243.2,483.1 L245.4,482.4 L245.4,482.4 L246,482.2 L246.4,482.1 L246.4,482.1 L248.6,481.3 L248.6,481.3 L249.2,481 L249.6,480.8 L249.6,480.8 L251.8,479.9 L251.8,479.9 L252.4,479.6 L252.8,479.4 L252.8,479.4 L254.9,478.4 L254.9,478.4 L255.5,478.1 L255.9,477.9 L255.9,477.9 L258,476.8 L258,476.8 L258.6,476.5 L259,476.3 L259,476.3 L261,475.1 L261,475.1 L261.5,474.7 L261.9,474.5 L261.9,474.5 L263.9,473.2 L263.9,473.2 L264.4,472.8 L264.8,472.6 L264.8,472.6 L266.7,471.2 L266.7,471.2 L267.2,470.8 L267.5,470.5 L267.5,470.5 L269.3,469 L269.3,469 L269.8,468.6 L270.1,468.3 L270.1,468.3 L271.9,466.7 L271.9,466.7 L272.4,466.2 L272.7,465.9 L272.7,465.9 L274.4,464.3 L274.4,464.3 L274.9,463.8 L275.2,463.5 L275.2,463.5 L276.8,461.8 L276.8,461.8 L277.2,461.3 L277.5,461 L277.5,461 L279.1,459.2 L279.1,459.2 L279.5,458.7 L279.8,458.4 L279.8,458.4 L281.3,456.6 L281.3,456.6 L281.7,456.1 L282,455.8 L282,455.8 L283.4,453.9 L283.4,453.9 L283.8,453.4 L284.1,453.1 L284.1,453.1 L285.4,451.1 L285.4,451.1 L285.7,450.5 L285.9,450.1 L285.9,450.1 L287.1,448.1 L287.1,448.1 L287.4,447.5 L287.6,447.1 L287.6,447.1 L288.7,445 L288.7,445 L289,444.4 L289.2,444 L289.2,444 L290.2,441.9 L290.2,441.9 L290.5,441.3 L290.7,440.9 L290.7,440.9 L291.6,438.7 L291.6,438.7 L291.8,438.1 L292,437.7 L292,437.7 L292.8,435.5 L292.8,435.5 L293,434.9 L293.2,434.5 L293.2,434.5 L293.9,432.3 L293.9,432.3 L294.1,431.7 L294.2,431.3 L294.2,431.3 L294.8,429 L294.8,429 L294.9,428.4 L295,428 L295,428 L295.5,425.7 L295.5,425.7 L295.6,425.1 L295.7,424.7 L295.7,424.7 L296.1,422.4 L296.1,422.4 L296.2,421.7 L296.3,421.3 L296.3,421.3 L296.6,419 L296.6,419 L296.7,418.3 L296.8,417.9 L296.8,417.9 L297,415.6 L297,415.6 L297,414.9 L297,414.5 L297,414.5 L297.1,412.1 L297.1,412.1 L297.1,411.4 L297.1,411.4 L297.6,411.4 L297.6,411.4 Z M248.3,477.4 L247.9,478.2 L247,478 L245.3,478.6 L244.9,479.3 L244,479 L242.3,479.6 L241.8,480.3 L240.9,480 L239.1,480.5 L238.6,481.2 L237.7,480.8 L235.9,481.2 L235.4,481.9 L234.5,481.5 L232.7,481.8 L232.1,482.5 L231.3,482.1 L229.5,482.3 L228.9,482.9 L228.1,482.4 L226.3,482.6 L225.7,483.2 L224.9,482.7 L223.1,482.8 L222.4,483.4 L221.6,482.9 L219.8,482.9 L219.1,483.4 L218.3,482.8 L216.5,482.7 L215.8,483.2 L215.1,482.6 L213.3,482.4 L212.6,482.9 L211.9,482.3 L210.1,482.1 L209.4,482.5 L208.7,481.8 L206.9,481.5 L206.1,481.9 L205.5,481.2 L203.7,480.8 L202.9,481.2 L202.3,480.5 L200.5,480 L199.7,480.3 L199.1,479.5 L197.4,478.9 L196.6,479.2 L196.1,478.4 L194.4,477.8 L193.6,478.1 L193.1,477.3 L191.4,476.6 L190.6,476.8 L190.1,476 L188.5,475.2 L187.7,475.4 L187.3,474.5 L185.7,473.6 L184.8,473.8 L184.4,472.9 L182.8,472 L181.9,472.1 L181.5,471.2 L180,470.2 L179.1,470.3 L178.8,469.4 L177.3,468.3 L176.4,468.3 L176.1,467.4 L174.7,466.3 L173.8,466.3 L173.6,465.4 L172.2,464.2 L171.3,464.2 L171.1,463.3 L169.8,462 L168.9,461.9 L168.8,461 L167.5,459.7 L166.6,459.6 L166.5,458.7 L165.3,457.3 L164.4,457.1 L164.3,456.1 L163.2,454.7 L162.4,454.5 L162.4,453.5 L161.3,452 L160.5,451.8 L160.5,450.8 L159.5,449.3 L158.7,449 L158.8,448.1 L157.9,446.5 L157.1,446.2 L157.2,445.3 L156.3,443.7 L155.5,443.4 L155.7,442.5 L154.9,440.9 L154.1,440.5 L154.3,439.6 L153.6,437.9 L152.8,437.5 L153,436.6 L152.4,434.9 L151.7,434.5 L152,433.6 L151.4,431.9 L150.7,431.4 L151,430.5 L150.5,428.7 L149.8,428.2 L150.2,427.3 L149.8,425.5 L149.1,425 L149.5,424.1 L149.2,422.3 L148.5,421.7 L148.9,420.9 L148.7,419.1 L148.1,418.5 L148.6,417.7 L148.4,415.9 L147.8,415.3 L148.3,414.5 L148.2,412.7 L147.6,412 L148.1,411.2 L148.1,409 L147.6,408.3 L148.2,407.5 L148.3,405.7 L147.8,405 L148.4,404.3 L148.6,402.5 L148.1,401.8 L148.7,401.1 L148.9,399.3 L148.5,398.6 L149.2,397.9 L149.5,396.1 L149.1,395.3 L149.8,394.7 L150.2,392.9 L149.8,392.1 L150.5,391.5 L151,389.7 L150.7,388.9 L151.5,388.3 L152.1,386.6 L151.8,385.8 L152.6,385.3 L153.2,383.6 L152.9,382.8 L153.7,382.3 L154.4,380.6 L154.2,379.8 L155,379.3 L155.8,377.7 L155.6,376.9 L156.5,376.5 L157.4,374.9 L157.2,374 L158.1,373.6 L159,372 L158.9,371.1 L159.8,370.7 L160.8,369.2 L160.7,368.3 L161.6,368 L162.7,366.5 L162.7,365.6 L163.6,365.3 L164.7,363.9 L164.7,363 L165.6,362.8 L166.8,361.4 L166.8,360.5 L167.7,360.3 L169,359 L169.1,358.1 L170,358 L171.3,356.7 L171.4,355.8 L172.3,355.7 L173.7,354.5 L173.9,353.6 L174.9,353.5 L176.3,352.4 L176.5,351.6 L177.5,351.6 L179,350.5 L179.2,349.7 L180.2,349.7 L181.7,348.7 L182,347.9 L182.9,348 L184.5,347.1 L184.8,346.3 L185.7,346.4 L187.3,345.5 L187.6,344.7 L188.5,344.9 L190.1,344.1 L190.5,343.3 L191.4,343.5 L193.1,342.8 L193.5,342 L194.4,342.2 L196.1,341.6 L196.5,340.9 L197.4,341.2 L199.1,340.6 L199.6,339.9 L200.5,340.2 L202.3,339.7 L202.8,339 L203.7,339.4 L205.5,339 L206,338.3 L206.9,338.7 L208.7,338.4 L209.3,337.7 L210.1,338.1 L211.9,337.9 L212.5,337.3 L213.3,337.8 L215.1,337.6 L215.7,337 L216.5,337.5 L218.3,337.4 L219,336.8 L219.8,337.3 L221.6,337.3 L222.3,336.8 L223.1,337.4 L224.9,337.5 L225.6,337 L226.3,337.6 L228.1,337.8 L228.8,337.3 L229.5,337.9 L231.3,338.1 L232,337.7 L232.7,338.4 L234.5,338.7 L235.3,338.3 L235.9,339 L237.7,339.4 L238.5,339 L239.1,339.7 L240.9,340.2 L241.7,339.9 L242.3,340.7 L244,341.3 L244.8,341 L245.3,341.8 L247,342.4 L247.8,342.1 L248.3,342.9 L250,343.6 L250.8,343.4 L251.3,344.2 L252.9,345 L253.7,344.8 L254.1,345.7 L255.7,346.6 L256.6,346.4 L257,347.3 L258.6,348.2 L259.5,348.1 L259.9,349 L261.4,350 L262.3,349.9 L262.6,350.8 L264.1,351.9 L265,351.9 L265.3,352.8 L266.7,353.9 L267.6,353.9 L267.8,354.8 L269.2,356 L270.1,356 L270.3,356.9 L271.6,358.2 L272.5,358.3 L272.6,359.2 L273.9,360.5 L274.8,360.6 L274.9,361.5 L276.1,362.9 L277,363.1 L277.1,364.1 L278.2,365.5 L279,365.7 L279,366.7 L280.1,368.2 L280.9,368.4 L280.9,369.4 L281.9,370.9 L282.7,371.2 L282.6,372.1 L283.5,373.7 L284.3,374 L284.2,374.9 L285.1,376.5 L285.9,376.8 L285.7,377.7 L286.5,379.3 L287.3,379.7 L287.1,380.6 L287.8,382.3 L288.6,382.7 L288.4,383.6 L289,385.3 L289.7,385.7 L289.4,386.6 L290,388.3 L290.7,388.8 L290.4,389.7 L290.9,391.5 L291.6,392 L291.2,392.9 L291.6,394.7 L292.3,395.2 L291.9,396.1 L292.2,397.9 L292.9,398.5 L292.5,399.3 L292.7,401.1 L293.3,401.7 L292.8,402.5 L293,404.3 L293.6,404.9 L293.1,405.7 L293.2,407.5 L293.8,408.2 L293.3,409 L293.3,410.8 L293.8,411.5 L293.2,412.3 L293.1,414.1 L293.6,414.8 L293,415.5 L292.8,417.3 L293.3,418 L292.7,418.7 L292.5,420.5 L292.9,421.2 L292.2,421.9 L291.9,423.7 L292.3,424.5 L291.6,425.1 L291.2,426.9 L291.6,427.7 L290.9,428.3 L290.4,430.1 L290.7,430.9 L289.9,431.5 L289.3,433.2 L289.6,434 L289,435 L288.4,436.7 L288.7,437.5 L287.9,438 L287.2,439.7 L287.4,440.5 L286.6,441 L285.8,442.6 L286,443.4 L285.1,443.8 L284.2,445.4 L284.4,446.3 L283.5,446.7 L282.6,448.3 L282.7,449.2 L281.8,449.6 L280.8,451.1 L280.9,452 L280,452.3 L278.9,453.8 L278.9,454.7 L278,455 L276.9,456.4 L276.9,457.3 L276,457.5 L274.8,458.9 L274.8,459.8 L273.9,460 L272.6,461.3 L272.5,462.2 L271.6,462.3 L270.3,463.6 L270.2,464.5 L269.3,464.6 L267.9,465.8 L267.7,466.7 L266.7,466.8 L265.3,467.9 L265.1,468.7 L264.1,468.7 L262.6,469.8 L262.4,470.6 L261.4,470.6 L259.9,471.6 L259.6,472.4 L258.7,472.3 L257.1,473.2 L256.8,474 L255.9,473.9 L254.3,474.8 L254,475.6 L253.1,475.4 L251.5,476.2 L251.1,477 L250.2,476.8 L248.3,477.4 Z" id="Shape"></path>
            <path class="path" stroke="#8F8F8F" stroke-width="0.25" d="M251,410 C251,404 253.5,398.6 257.6,394.8 C252,395 246.4,393 242.1,388.7 C237.9,384.5 235.8,378.8 236,373.3 C232.2,377.4 226.8,380 220.7,380 C214.7,380 209.3,377.5 205.5,373.4 C205.7,379 203.7,384.6 199.4,388.9 C195.2,393.1 189.5,395.2 184,395 C188.1,398.8 190.7,404.2 190.7,410.3 C190.7,416.3 188.2,421.7 184.1,425.5 C189.7,425.3 195.3,427.3 199.6,431.6 C203.8,435.8 205.9,441.5 205.7,447 C209.5,442.9 214.9,440.3 221,440.3 C227,440.3 232.4,442.8 236.2,446.9 C236,441.3 238,435.7 242.3,431.4 C246.5,427.2 252.2,425.1 257.7,425.3 C253.5,421.5 251,416 251,410 Z M220.8,432.3 C208.5,432.3 198.6,422.4 198.6,410.1 C198.6,397.8 208.5,387.9 220.8,387.9 C233.1,387.9 243,397.8 243,410.1 C243,422.4 233,432.3 220.8,432.3 Z" id="Shape"></path>
            <path class="path" stroke="#8F8F8F" stroke-width="0.25" d="M294,408.6 L293.4,407.9 L293.3,406.1 L293.8,405.3 L293.2,404.7 L293,402.9 L293.5,402.1 L292.9,401.5 L292.7,399.7 L293.1,398.9 L292.4,398.3 L292.1,396.5 L292.5,395.6 L291.8,395.1 L291.4,393.3 L291.8,392.4 L291.1,391.9 L290.6,390.1 L290.9,389.2 L290.2,388.7 L289.6,387 L289.9,386.1 L289.2,385.7 L288.6,384 L288.8,383.1 L288,382.7 L287.3,381 L287.5,380.1 L286.7,379.7 L285.9,378.1 L286.1,377.2 L285.3,376.9 L284.4,375.3 L284.5,374.4 L283.7,374.1 L282.8,372.5 L282.9,371.6 L282,371 L281,369.5 L281,368.5 L280.2,368.3 L279.1,366.8 L279.1,365.8 L278.3,365.6 L277.2,364.2 L277.1,363.2 L276.2,363 L275,361.6 L274.9,360.7 L274,360.6 L272.7,359.3 L272.6,358.4 L271.7,358.3 L270.4,357 L270.2,356.1 L269.3,356.1 L268,355 L267.8,354.1 L266.9,354.1 L265.5,353 L265.2,352.1 L264.3,352.1 L262.8,351 L262.5,350.1 L261.6,350.2 L260.1,349.2 L259.7,348.3 L258.8,348.4 L257.2,347.5 L256.8,346.6 L255.9,346.8 L254.3,345.9 L253.9,345 L253.1,345.2 L251.5,344.4 L251,343.6 L250.2,343.8 L248.5,343.1 L248,342.3 L247.2,342.6 L245.5,342 L245,341.2 L244.2,341.5 L242.5,340.9 L241.9,340.1 L241.1,340.4 L239.3,339.9 L238.7,339.2 L237.9,339.6 L236.1,339.2 L235.5,338.5 L234.7,338.9 L232.9,338.6 L232.2,337.9 L231.5,338.3 L229.7,338.1 L229,337.5 L228.3,338 L226.5,337.8 L225.8,337.2 L225.1,337.7 L223.3,337.6 L222.5,337 L221.8,337.5 L220,337.5 L219.2,337 L218.5,337.6 L216.7,337.7 L215.9,337.2 L215.3,337.8 L213.5,338 L212.7,337.5 L212.1,338.1 L210.3,338.3 L209.5,337.9 L208.9,338.6 L207.1,338.9 L206.2,338.5 L205.7,339.2 L203.9,339.6 L203,339.2 L202.5,339.9 L200.7,340.4 L199.8,340.1 L199.3,340.8 L197.6,341.4 L196.7,341.1 L196.3,341.8 L194.6,342.4 L193.7,342.2 L193.3,343 L191.6,343.7 L190.7,343.5 L190.3,344.3 L188.7,345.1 L187.8,344.9 L187.5,345.7 L185.9,346.6 L185,346.5 L184.7,347.3 L183.1,348.2 L182.2,348.1 L181.9,348.9 L180.4,349.9 L179.4,349.9 L179.2,350.7 L177.7,351.8 L176.7,351.8 L176.5,352.6 L175.1,353.7 L174.1,353.8 L173.9,354.7 L172.5,355.9 L171.6,356 L171.5,356.9 L170.2,358.2 L169.3,358.3 L169.2,359.2 L167.9,360.5 L167,360.7 L167,361.6 L165.8,363 L164.9,363.2 L164.9,364.1 L163.8,365.5 L162.9,365.8 L162.9,366.7 L161.8,368.2 L160.9,368.5 L161,369.4 L160,370.9 L159.1,371.3 L159.2,372.2 L158.3,373.8 L157.4,374.2 L157.6,375.1 L156.7,376.7 L155.8,377.1 L156,377.9 L155.2,379.5 L154.4,380 L154.6,380.8 L153.9,382.5 L153.1,383 L153.4,383.8 L152.8,385.5 L152,386 L152.3,386.8 L151.7,388.5 L150.9,389.1 L151.2,389.9 L150.7,391.7 L150,392.3 L150.4,393.1 L150,394.9 L149.3,395.5 L149.7,396.3 L149.4,398.1 L148.7,398.8 L149.1,399.5 L148.9,401.3 L148.3,402 L148.8,402.7 L148.6,404.5 L148,405.2 L148.5,405.9 L148.4,407.7 L147.8,408.5 L148.3,409.2 L148.3,411 L147.8,411.8 L148.4,412.5 L148.5,414.3 L148,415.1 L148.6,415.7 L148.8,417.5 L148.3,418.3 L148.9,418.9 L149.1,420.7 L148.7,421.5 L149.4,422.1 L149.7,423.9 L149.3,424.8 L150,425.3 L150.4,427.1 L150,428 L150.7,428.5 L151.2,430.3 L150.9,431.2 L151.6,431.7 L152.2,433.4 L151.9,434.3 L152.6,434.7 L153.2,436.4 L153,437.3 L153.8,437.7 L154.5,439.4 L154.3,440.3 L155.1,440.7 L155.9,442.3 L155.7,443.2 L156.5,443.5 L157.4,445.1 L157.3,446 L158.1,446.3 L159,447.9 L158.9,448.8 L159.7,449.1 L160.7,450.6 L160.7,451.6 L161.5,451.8 L162.6,453.3 L162.6,454.3 L163.4,454.5 L164.5,455.9 L164.6,456.9 L165.5,457.1 L166.7,458.5 L166.8,459.4 L167.7,459.5 L169,460.8 L169.1,461.7 L170,461.8 L171.3,463.1 L171.5,464 L172.4,464 L173.8,465.2 L174,466.1 L174.9,466.1 L176.3,467.2 L176.6,468.1 L177.5,468.1 L179,469.2 L179.3,470.1 L180.2,470 L181.7,471 L182.1,471.9 L183,471.8 L184.6,472.7 L185,473.6 L185.9,473.4 L187.5,474.3 L187.9,475.2 L188.7,475 L190.3,475.8 L190.8,476.6 L191.6,476.4 L193.3,477.1 L193.8,477.9 L194.6,477.6 L196.3,478.2 L196.8,479 L197.6,478.7 L199.3,479.3 L199.9,480.1 L200.7,479.8 L202.5,480.3 L203.1,481 L203.9,480.6 L205.7,481 L206.3,481.7 L207.1,481.3 L208.9,481.6 L209.6,482.3 L210.3,481.9 L212.1,482.1 L212.8,482.7 L213.5,482.2 L215.3,482.4 L216,483 L216.7,482.5 L218.5,482.6 L219.3,483.2 L220,482.7 L221.8,482.7 L222.6,483.2 L223.3,482.6 L225.1,482.5 L225.9,483 L226.5,482.4 L228.3,482.2 L229.1,482.7 L229.7,482.1 L231.5,481.9 L232.3,482.3 L232.9,481.6 L234.7,481.3 L235.6,481.7 L236.1,481 L237.9,480.6 L238.8,481 L239.3,480.3 L241.1,479.8 L242,480.1 L242.5,479.4 L244.2,478.8 L245.1,479.1 L245.5,478.4 L247.2,477.8 L248.1,478 L248.5,477.2 L250.2,476.5 L251.1,476.7 L251.5,475.9 L253.1,475.1 L254,475.3 L254.3,474.5 L255.9,473.6 L256.8,473.7 L257.1,472.9 L258.7,472 L259.6,472.1 L259.9,471.3 L261.4,470.3 L262.4,470.3 L262.6,469.5 L264.1,468.4 L265.1,468.4 L265.3,467.6 L266.7,466.5 L267.7,466.4 L267.9,465.5 L269.3,464.3 L270.2,464.2 L270.3,463.3 L271.6,462 L272.5,461.9 L272.6,461 L273.9,459.7 L274.8,459.5 L274.8,458.6 L276,457.2 L276.9,457 L276.9,456.1 L278,454.7 L278.9,454.4 L278.9,453.5 L280,452 L280.9,451.7 L280.8,450.8 L281.8,449.3 L282.7,448.9 L282.6,448 L283.5,446.4 L284.4,446 L284.2,445.1 L285.1,443.5 L286,443.1 L285.8,442.3 L286.6,440.7 L287.4,440.2 L287.2,439.4 L287.9,437.7 L288.7,437.2 L288.4,436.4 L289,434.7 L289.8,434.2 L289.5,433.4 L290.1,431.7 L290.9,431.1 L290.6,430.3 L291.1,428.5 L291.8,427.9 L291.4,427.1 L291.8,425.3 L292.5,424.7 L292.1,423.9 L292.4,422.1 L293.1,421.4 L292.7,420.7 L292.9,418.9 L293.5,418.2 L293,417.5 L293.2,415.7 L293.8,415 L293.3,414.3 L293.4,412.5 L294,411.7 L293.5,411 L293.5,409.2 L294,408.6 Z M271.9,430.9 L271.3,430.9 C271.5,431.1 271.7,431.2 271.8,431.4 C280,439.6 280,452.8 271.8,461 C263.6,469.2 250.4,469.2 242.2,461 C242.1,460.9 241.9,460.7 241.8,460.5 L241.8,461.2 C241.8,472.8 232.4,482.1 220.9,482.1 C209.4,482.1 200,472.7 200,461.2 L200,460.6 C199.8,460.8 199.7,461 199.5,461.1 C191.3,469.3 178.1,469.3 169.9,461.1 C161.7,452.9 161.7,439.7 169.9,431.5 C170,431.4 170.2,431.2 170.4,431.1 L169.7,431.1 C158.1,431.1 148.8,421.7 148.8,410.2 C148.8,398.7 158.2,389.3 169.7,389.3 L170.3,389.3 C170.1,389.1 169.9,389 169.8,388.8 C161.6,380.6 161.6,367.4 169.8,359.2 C178,351 191.2,351 199.4,359.2 C199.5,359.3 199.7,359.5 199.8,359.7 L199.8,359 C199.8,347.4 209.2,338.1 220.7,338.1 C232.2,338.1 241.6,347.5 241.6,359 L241.6,359.6 C241.8,359.4 241.9,359.2 242.1,359.1 C250.3,350.9 263.5,350.9 271.7,359.1 C279.9,367.3 279.9,380.5 271.7,388.7 C271.6,388.8 271.4,389 271.2,389.1 L271.9,389.1 C283.5,389.1 292.8,398.5 292.8,410 C292.8,421.5 283.5,430.9 271.9,430.9 Z" id="Shape"></path>
            <path class="path" stroke="#8F8F8F" stroke-width="0.25" d="M258.1,301.4 C253.4,301.4 249.6,305.2 249.6,310 L249.6,311.7 L266.6,311.7 L266.6,310 C266.6,305.2 262.8,301.4 258.1,301.4 Z" id="Shape"></path>
            <path class="path" stroke="#8F8F8F" stroke-width="0.25" d="M276.8,301.4 C272.1,301.4 268.3,305.2 268.3,310 L268.3,311.7 L285.3,311.7 L285.3,310 C285.3,305.2 281.5,301.4 276.8,301.4 Z" id="Shape"></path>
            <path class="path" stroke="#8F8F8F" stroke-width="0.25" d="M239.4,301.4 C234.7,301.4 230.9,305.2 230.9,310 L230.9,311.7 L247.9,311.7 L247.9,310 C248,305.2 244.2,301.4 239.4,301.4 Z" id="Shape"></path>
            <path class="path" stroke="#8F8F8F" stroke-width="0.25" d="M295.4,301.4 C290.7,301.4 286.9,305.2 286.9,310 L286.9,311.7 L303.9,311.7 L303.9,310 C304,305.2 300.1,301.4 295.4,301.4 Z" id="Shape"></path>
            <path class="path" stroke="#8F8F8F" stroke-width="0.25" d="M314.1,301.4 C309.4,301.4 305.6,305.2 305.6,310 L305.6,311.7 L322.6,311.7 L322.6,310 C322.6,305.2 318.8,301.4 314.1,301.4 Z" id="Shape"></path>
            <path class="path" stroke="#8F8F8F" stroke-width="0.25" d="M202.1,301.4 C197.4,301.4 193.6,305.2 193.6,310 L193.6,311.7 L210.6,311.7 L210.6,310 C210.6,305.2 206.8,301.4 202.1,301.4 Z" id="Shape"></path>
            <path class="path" stroke="#8F8F8F" stroke-width="0.25" d="M146.1,301.4 C141.4,301.4 137.6,305.2 137.6,310 L137.6,311.7 L154.6,311.7 L154.6,310 C154.7,305.2 150.8,301.4 146.1,301.4 Z" id="Shape"></path>
            <path class="path" stroke="#8F8F8F" stroke-width="0.25" d="M220.8,301.4 C216.1,301.4 212.3,305.2 212.3,310 L212.3,311.7 L229.3,311.7 L229.3,310 C229.3,305.2 225.5,301.4 220.8,301.4 Z" id="Shape"></path>
            <path class="path" stroke="#8F8F8F" stroke-width="0.25" d="M127.5,301.4 C122.8,301.4 119,305.2 119,310 L119,311.7 L136,311.7 L136,310 C136,305.2 132.2,301.4 127.5,301.4 Z" id="Shape"></path>
            <path class="path" stroke="#8F8F8F" stroke-width="0.25" d="M183.5,301.4 C178.8,301.4 175,305.2 175,310 L175,311.7 L192,311.7 L192,310 C192,305.2 188.2,301.4 183.5,301.4 Z" id="Shape"></path>
            <path class="path" stroke="#8F8F8F" stroke-width="0.25" d="M164.8,301.4 C160.1,301.4 156.3,305.2 156.3,310 L156.3,311.7 L173.3,311.7 L173.3,310 C173.3,305.2 169.5,301.4 164.8,301.4 Z" id="Shape"></path>
            <path class="path" stroke="#8F8F8F" stroke-width="0.25" d="M437.3,446 L437.3,440 C437.3,435.3 433.5,431.4 428.8,431.4 C424.1,431.4 420.3,435.2 420.3,440 L420.3,446.1 L418.7,446.1 L418.7,440 C418.7,435.3 414.9,431.4 410.2,431.4 C405.5,431.4 401.7,435.2 401.7,440 L401.7,446.1 L400,446.1 L400,440 C400,435.3 396.2,431.4 391.5,431.4 C386.8,431.4 383,435.2 383,440 L383,446.1 L381.4,446.1 L381.4,440 C381.4,435.3 377.6,431.4 372.9,431.4 C368.2,431.4 364.4,435.2 364.4,440 L364.4,446.1 L362.8,446.1 L362.8,440 C362.8,435.3 359,431.4 354.3,431.4 C349.6,431.4 345.8,435.2 345.8,440 L345.8,446.1 L344,446.1 L344,440 C344,435.3 340.2,431.4 335.5,431.4 C330.8,431.4 327,435.2 327,440 L327,446.1 L327,460.7 L327,725.7 L437.4,725.7" id="Shape"></path>
            <polygon class="path" stroke="#8F8F8F" stroke-width="0.25" id="Shape" points="381.6 327.6 381.6 327.6 322.6 428.3 440.6 428.3"></polygon>
            <path class="path" stroke="#8F8F8F" stroke-width="0.25" d="M410.1,431.4 C405.4,431.4 401.6,435.2 401.6,440 L401.6,441.7 L418.6,441.7 L418.6,440 C418.7,435.3 414.9,431.4 410.1,431.4 Z" id="Shape"></path>
            <path class="path" stroke="#8F8F8F" stroke-width="0.25" d="M354.2,431.4 C349.5,431.4 345.7,435.2 345.7,440 L345.7,441.7 L362.7,441.7 L362.7,440 C362.7,435.3 358.9,431.4 354.2,431.4 Z" id="Shape"></path>
            <path class="path" stroke="#8F8F8F" stroke-width="0.25" d="M428.8,431.4 C424.1,431.4 420.3,435.2 420.3,440 L420.3,441.7 L437.3,441.7 L437.3,440 C437.3,435.3 433.5,431.4 428.8,431.4 Z" id="Shape"></path>
            <path class="path" stroke="#8F8F8F" stroke-width="0.25" d="M335.5,431.4 C330.8,431.4 327,435.2 327,440 L327,441.7 L344,441.7 L344,440 C344,435.3 340.2,431.4 335.5,431.4 Z" id="Shape"></path>
            <path class="path" stroke="#8F8F8F" stroke-width="0.25" d="M391.5,431.4 C386.8,431.4 383,435.2 383,440 L383,441.7 L400,441.7 L400,440 C400,435.3 396.2,431.4 391.5,431.4 Z" id="Shape"></path>
            <path class="path" stroke="#8F8F8F" stroke-width="0.25" d="M372.8,431.4 C368.1,431.4 364.3,435.2 364.3,440 L364.3,441.7 L381.3,441.7 L381.3,440 C381.3,435.3 377.5,431.4 372.8,431.4 Z" id="Shape"></path>
            <path class="path" stroke="#8F8F8F" stroke-width="0.25" d="M322.6,428.3 L322.6,446.6 L327,446.6 L327,446 L327,440 C327,435.3 330.8,431.4 335.5,431.4 C340.2,431.4 344,435.2 344,440 L344,446.1 L345.6,446.1 L345.6,440 C345.6,435.3 349.4,431.4 354.1,431.4 C358.8,431.4 362.6,435.2 362.6,440 L362.6,446.1 L364.2,446.1 L364.2,440 C364.2,435.3 368,431.4 372.7,431.4 C377.4,431.4 381.2,435.2 381.2,440 L381.2,446.1 L382.8,446.1 L382.8,440 C382.8,435.3 386.6,431.4 391.3,431.4 C396,431.4 399.8,435.2 399.8,440 L399.8,446.1 L401.4,446.1 L401.4,440 C401.4,435.3 405.2,431.4 409.9,431.4 C414.6,431.4 418.4,435.2 418.4,440 L418.4,446.1 L420,446.1 L420,440 C420,435.3 423.8,431.4 428.5,431.4 C433.2,431.4 437,435.2 437,440 L437,446.1 L437,446.7 L440.8,446.7 L440.8,428.4 L322.6,428.4 L322.6,428.3 Z" id="Shape"></path>
            <path class="path" stroke="#8F8F8F" stroke-width="0.25" d="M437.3,491.5 L403.9,491.5 L403.9,491 C403.9,478.8 394,468.9 381.8,468.9 C369.6,468.9 359.7,478.8 359.7,491 L359.7,491.5 L327,491.5 L327,490.5 L358.8,490.5 C359.1,478 369.3,467.9 381.9,467.9 C394.5,467.9 404.7,478 405,490.5 L437.4,490.5 L437.4,491.5 L437.3,491.5 Z" id="Shape"></path>
            <path class="path" stroke="#8F8F8F" stroke-width="0.25" d="M361.5,574.1 C357.5,574.1 354.3,577.4 354.3,581.4 L354.3,599 L368.8,599 L368.8,581.4 C368.7,577.4 365.5,574.1 361.5,574.1 Z" id="Shape"></path>
            <path class="path" stroke="#8F8F8F" stroke-width="0.25" d="M381.6,574.1 C377.6,574.1 374.4,577.4 374.4,581.4 L374.4,599 L388.9,599 L388.9,581.4 C388.8,577.4 385.6,574.1 381.6,574.1 Z" id="Shape"></path>
            <path class="path" stroke="#8F8F8F" stroke-width="0.25" d="M401.7,574.1 C397.7,574.1 394.5,577.4 394.5,581.4 L394.5,599 L409,599 L409,581.4 C409,577.4 405.7,574.1 401.7,574.1 Z" id="Shape"></path>
            <path class="path" stroke="#8F8F8F" stroke-width="0.25" d="M392.7,491.3 C388.7,491.3 385.5,494.6 385.5,498.6 L385.5,516.2 L400,516.2 L400,498.6 C400,494.6 396.7,491.3 392.7,491.3 Z" id="Shape"></path>
            <path class="path" stroke="#8F8F8F" stroke-width="0.25" d="M381.9,495 L382.5,492.5 C382.5,488.5 386.9,485.2 390.9,485.2 C394.9,485.2 399.9,488.5 399.9,492.5 L399.9,490.4 C399.9,482 391.8,473.3 381.8,473.3 C371.8,473.3 363.7,482.1 363.7,490.4 L363.7,492.5 C363.7,488.5 368.7,485.2 372.7,485.2 C376.7,485.2 381.1,488.5 381.1,492.5 L381.9,495 Z" id="Shape"></path>
            <path class="path" stroke="#8F8F8F" stroke-width="0.25" d="M371,491.3 C367,491.3 363.8,494.6 363.8,498.6 L363.8,516.2 L378.3,516.2 L378.3,498.6 C378.3,494.6 375,491.3 371,491.3 Z" id="Shape"></path>
            <path class="path" stroke="#8F8F8F" stroke-width="0.25" d="M385.5,498.6 C385.5,494.6 388.7,491.3 392.7,491.3 C396.7,491.3 399.9,494.6 399.9,498.6 L399.9,492.6 C399.9,488.6 394.9,485.3 390.9,485.3 C386.9,485.3 382.5,488.6 382.5,492.6 L381.9,495.1 L381.3,492.6 C381.3,488.6 376.9,485.3 372.9,485.3 C368.9,485.3 363.9,488.6 363.9,492.6 L363.9,498.6 C363.9,494.6 367.1,491.3 371.1,491.3 C375.1,491.3 378.3,494.6 378.3,498.6 L385.5,498.6 Z" id="Shape"></path>
            <rect class="path" stroke="#8F8F8F" stroke-width="0.25" id="Rectangle-path" x="361.8" y="516.4" width="40.2" height="10.3"></rect>
            <rect class="path" stroke="#8F8F8F" stroke-width="0.25" id="Rectangle-path" x="364.3" y="526.9" width="35.2" height="10.3"></rect>
            <rect class="path" stroke="#8F8F8F" stroke-width="0.25" id="Rectangle-path" x="327" y="614.5" width="110.4" height="10.3"></rect>
            <rect class="path" stroke="#8F8F8F" stroke-width="0.25" id="Rectangle-path" x="378.3" y="498.6" width="7.2" height="17.6"></rect>
            <circle class="path" stroke="#8F8F8F" stroke-width="0.25" id="Oval" cx="381.9" cy="480.4" r="6.4"></circle>
            <circle class="path" stroke="#8F8F8F" stroke-width="0.25" id="Oval" cx="381.9" cy="480.4" r="5.7"></circle>
            <circle class="path" stroke="#8F8F8F" stroke-width="0.25" id="Oval" cx="381.9" cy="480.4" r="5.5"></circle>
            <path class="path" stroke="#8F8F8F" stroke-width="0.25" d="M402,516.2 L400,516.2 L400,490.5 C400,482.4 392.2,473.4 381.9,473.4 C371.6,473.4 363.8,482.4 363.8,490.5 L363.8,516.2 L361.8,516.2 L361.8,490.5 C361.8,481.5 370.4,471.4 381.9,471.4 C393.4,471.4 402,481.5 402,490.5 L402,516.2 Z" id="Shape"></path>
            <rect class="path" stroke="#8F8F8F" stroke-width="0.25" id="Rectangle-path" x="327" y="613.5" width="110.4" height="1"></rect>
            <rect class="path" stroke="#8F8F8F" stroke-width="0.25" id="Rectangle-path" x="350.3" y="598.5" width="63.1" height="1"></rect>
            <rect class="path" stroke="#8F8F8F" stroke-width="0.25" id="Rectangle-path" x="361.8" y="537.1" width="40.2" height="1"></rect>
            <path class="path" stroke="#8F8F8F" stroke-width="0.25" d="M253.2,610.3 C241.2,610.3 231.5,620.1 231.5,632.1 L231.5,684.7 L274.9,684.7 L274.9,632.1 C274.9,620 265.2,610.3 253.2,610.3 Z" id="Shape"></path>
            <path class="path" stroke="#8F8F8F" stroke-width="0.25" d="M220.7,621.3 L222.5,613.9 C222.5,601.9 235.8,592.1 247.8,592.1 C259.8,592.1 274.9,601.9 274.9,613.9 L274.9,607.5 C274.9,582.4 250.6,556.1 220.7,556.1 C190.8,556.1 166.5,582.4 166.5,607.5 L166.5,613.9 C166.5,601.9 181.6,592.1 193.6,592.1 C205.6,592.1 218.9,601.9 218.9,613.9 L220.7,621.3 Z" id="Shape"></path>
            <path class="path" stroke="#8F8F8F" stroke-width="0.25" d="M188.1,610.3 C176.1,610.3 166.4,620.1 166.4,632.1 L166.4,684.7 L209.8,684.7 L209.8,632.1 C209.8,620 200.1,610.3 188.1,610.3 Z" id="Shape"></path>
            <path class="path" stroke="#8F8F8F" stroke-width="0.25" d="M231.5,632.1 C231.5,620.1 241.2,610.3 253.2,610.3 C265.2,610.3 274.9,620.1 274.9,632.1 L274.9,614 C274.9,602 259.8,592.2 247.8,592.2 C235.8,592.2 222.5,602 222.5,614 L220.7,621.4 L218.9,614 C218.9,602 205.6,592.2 193.6,592.2 C181.6,592.2 166.5,602 166.5,614 L166.5,632.1 C166.5,620.1 176.2,610.3 188.2,610.3 C200.2,610.3 209.9,620.1 209.9,632.1 L231.5,632.1 Z" id="Shape"></path>
            <rect class="path" stroke="#8F8F8F" stroke-width="0.25" id="Rectangle-path" x="160.4" y="684.4" width="120.6" height="13.6"></rect>
            <rect class="path" stroke="#8F8F8F" stroke-width="0.25" id="Rectangle-path" x="151.4" y="697.8" width="138.5" height="13.6"></rect>
            <rect class="path" stroke="#8F8F8F" stroke-width="0.25" id="Rectangle-path" x="139.3" y="711.4" width="162.8" height="13.6"></rect>
            <rect class="path" stroke="#8F8F8F" stroke-width="0.25" id="Rectangle-path" x="209.8" y="632.1" width="21.7" height="52.6"></rect>
            <circle class="path" stroke="#8F8F8F" stroke-width="0.25" id="Oval" cx="220.7" cy="577.7" r="19"></circle>
            <circle class="path" stroke="#8F8F8F" stroke-width="0.25" id="Oval" cx="220.7" cy="577.7" r="17"></circle>
            <circle class="path" stroke="#8F8F8F" stroke-width="0.25" id="Oval" cx="220.7" cy="577.7" r="16.4"></circle>
            <path class="path" stroke="#8F8F8F" stroke-width="0.25" d="M281,684.7 L275,684.7 L275,607.7 C275,583.5 251.8,556.4 220.7,556.4 C189.6,556.4 166.4,583.5 166.4,607.7 L166.4,684.7 L160.4,684.7 L160.4,607.7 C160.4,580.7 186.2,550.4 220.7,550.4 C255.2,550.4 281,580.6 281,607.7 L281,684.7 Z" id="Shape"></path>
            <rect class="path" stroke="#8F8F8F" stroke-width="0.25" id="Rectangle-path" x="334.3" y="555.8" width="2.3" height="2.3"></rect>
            <rect class="path" stroke="#8F8F8F" stroke-width="0.25" id="Rectangle-path" x="338.8" y="555.8" width="2.3" height="2.3"></rect>
            <rect class="path" stroke="#8F8F8F" stroke-width="0.25" id="Rectangle-path" x="343.2" y="555.8" width="2.3" height="2.3"></rect>
            <rect class="path" stroke="#8F8F8F" stroke-width="0.25" id="Rectangle-path" x="347.7" y="555.8" width="2.3" height="2.3"></rect>
            <rect class="path" stroke="#8F8F8F" stroke-width="0.25" id="Rectangle-path" x="352.1" y="555.8" width="2.3" height="2.3"></rect>
            <rect class="path" stroke="#8F8F8F" stroke-width="0.25" id="Rectangle-path" x="356.5" y="555.8" width="2.3" height="2.3"></rect>
            <rect class="path" stroke="#8F8F8F" stroke-width="0.25" id="Rectangle-path" x="361" y="555.8" width="2.3" height="2.3"></rect>
            <rect class="path" stroke="#8F8F8F" stroke-width="0.25" id="Rectangle-path" x="365.4" y="555.8" width="2.3" height="2.3"></rect>
            <rect class="path" stroke="#8F8F8F" stroke-width="0.25" id="Rectangle-path" x="369.9" y="555.8" width="2.3" height="2.3"></rect>
            <rect class="path" stroke="#8F8F8F" stroke-width="0.25" id="Rectangle-path" x="374.3" y="555.8" width="2.3" height="2.3"></rect>
            <rect class="path" stroke="#8F8F8F" stroke-width="0.25" id="Rectangle-path" x="378.8" y="555.8" width="2.3" height="2.3"></rect>
            <rect class="path" stroke="#8F8F8F" stroke-width="0.25" id="Rectangle-path" x="383.2" y="555.8" width="2.3" height="2.3"></rect>
            <rect class="path" stroke="#8F8F8F" stroke-width="0.25" id="Rectangle-path" x="387.6" y="555.8" width="2.3" height="2.3"></rect>
            <rect class="path" stroke="#8F8F8F" stroke-width="0.25" id="Rectangle-path" x="392.1" y="555.8" width="2.3" height="2.3"></rect>
            <rect class="path" stroke="#8F8F8F" stroke-width="0.25" id="Rectangle-path" x="396.5" y="555.8" width="2.3" height="2.3"></rect>
            <rect class="path" stroke="#8F8F8F" stroke-width="0.25" id="Rectangle-path" x="401" y="555.8" width="2.3" height="2.3"></rect>
            <rect class="path" stroke="#8F8F8F" stroke-width="0.25" id="Rectangle-path" x="405.4" y="555.8" width="2.3" height="2.3"></rect>
            <rect class="path" stroke="#8F8F8F" stroke-width="0.25" id="Rectangle-path" x="409.9" y="555.8" width="2.3" height="2.3"></rect>
            <rect class="path" stroke="#8F8F8F" stroke-width="0.25" id="Rectangle-path" x="414.3" y="555.8" width="2.3" height="2.3"></rect>
            <rect class="path" stroke="#8F8F8F" stroke-width="0.25" id="Rectangle-path" x="418.8" y="555.8" width="2.3" height="2.3"></rect>
            <rect class="path" stroke="#8F8F8F" stroke-width="0.25" id="Rectangle-path" x="423.2" y="555.8" width="2.3" height="2.3"></rect>
            <rect class="path" stroke="#8F8F8F" stroke-width="0.25" id="Rectangle-path" x="427.6" y="555.8" width="2.3" height="2.3"></rect>
            <rect class="path" stroke="#8F8F8F" stroke-width="0.25" id="Rectangle-path" x="336.7" y="553.5" width="2.3" height="2.3"></rect>
            <rect class="path" stroke="#8F8F8F" stroke-width="0.25" id="Rectangle-path" x="341.1" y="553.5" width="2.3" height="2.3"></rect>
            <rect class="path" stroke="#8F8F8F" stroke-width="0.25" id="Rectangle-path" x="345.6" y="553.5" width="2.3" height="2.3"></rect>
            <rect class="path" stroke="#8F8F8F" stroke-width="0.25" id="Rectangle-path" x="350" y="553.5" width="2.3" height="2.3"></rect>
            <rect class="path" stroke="#8F8F8F" stroke-width="0.25" id="Rectangle-path" x="354.4" y="553.5" width="2.3" height="2.3"></rect>
            <rect class="path" stroke="#8F8F8F" stroke-width="0.25" id="Rectangle-path" x="358.9" y="553.5" width="2.3" height="2.3"></rect>
            <rect class="path" stroke="#8F8F8F" stroke-width="0.25" id="Rectangle-path" x="363.3" y="553.5" width="2.3" height="2.3"></rect>
            <rect class="path" stroke="#8F8F8F" stroke-width="0.25" id="Rectangle-path" x="367.8" y="553.5" width="2.3" height="2.3"></rect>
            <rect class="path" stroke="#8F8F8F" stroke-width="0.25" id="Rectangle-path" x="372.2" y="553.5" width="2.3" height="2.3"></rect>
            <rect class="path" stroke="#8F8F8F" stroke-width="0.25" id="Rectangle-path" x="376.7" y="553.5" width="2.3" height="2.3"></rect>
            <rect class="path" stroke="#8F8F8F" stroke-width="0.25" id="Rectangle-path" x="381.1" y="553.5" width="2.3" height="2.3"></rect>
            <rect class="path" stroke="#8F8F8F" stroke-width="0.25" id="Rectangle-path" x="385.6" y="553.5" width="2.3" height="2.3"></rect>
            <rect class="path" stroke="#8F8F8F" stroke-width="0.25" id="Rectangle-path" x="390" y="553.5" width="2.3" height="2.3"></rect>
            <rect class="path" stroke="#8F8F8F" stroke-width="0.25" id="Rectangle-path" x="394.4" y="553.5" width="2.3" height="2.3"></rect>
            <rect class="path" stroke="#8F8F8F" stroke-width="0.25" id="Rectangle-path" x="398.9" y="553.5" width="2.3" height="2.3"></rect>
            <rect class="path" stroke="#8F8F8F" stroke-width="0.25" id="Rectangle-path" x="403.3" y="553.5" width="2.3" height="2.3"></rect>
            <rect class="path" stroke="#8F8F8F" stroke-width="0.25" id="Rectangle-path" x="407.8" y="553.5" width="2.3" height="2.3"></rect>
            <rect class="path" stroke="#8F8F8F" stroke-width="0.25" id="Rectangle-path" x="412.2" y="553.5" width="2.3" height="2.3"></rect>
            <rect class="path" stroke="#8F8F8F" stroke-width="0.25" id="Rectangle-path" x="416.7" y="553.5" width="2.3" height="2.3"></rect>
            <rect class="path" stroke="#8F8F8F" stroke-width="0.25" id="Rectangle-path" x="421.1" y="553.5" width="2.3" height="2.3"></rect>
            <rect class="path" stroke="#8F8F8F" stroke-width="0.25" id="Rectangle-path" x="425.5" y="553.5" width="2.3" height="2.3"></rect>
            <path class="path" stroke="#8F8F8F" stroke-width="0.25" d="M363.8,725.6 L363.8,662.2 C363.8,654.1 371.6,645.1 381.9,645.1 C392.2,645.1 400,654.1 400,662.2 L400,725.6 L402,725.6 L402,662.2 C402,653.2 393.4,643.1 381.9,643.1 C370.4,643.1 361.8,653.2 361.8,662.2 L361.8,725.6 L363.8,725.6 Z" id="Shape"></path>
            <path class="path" stroke="#8F8F8F" stroke-width="0.25" d="M400,725.6 L400,662.2 C400,654.1 392.2,645.1 381.9,645.1 C371.6,645.1 363.8,654.1 363.8,662.2 L363.8,725.6" id="Shape"></path>
            <rect class="path" stroke="#8F8F8F" stroke-width="0.25" id="Rectangle-path" x="327" y="704.1" width="34.8" height="1"></rect>
            <rect class="path" stroke="#8F8F8F" stroke-width="0.25" id="Rectangle-path" x="402" y="704.1" width="35.3" height="1"></rect>
            <rect class="path" stroke="#8F8F8F" stroke-width="0.25" id="Rectangle-path" x="327" y="706.8" width="34.8" height="1"></rect>
            <rect class="path" stroke="#8F8F8F" stroke-width="0.25" id="Rectangle-path" x="402" y="706.8" width="35.3" height="1"></rect>
            <path class="path" stroke="#8F8F8F" stroke-width="0.25" d="M115.4,446.3 L115.4,440.2 C115.4,435.5 111.6,431.6 106.9,431.6 C102.2,431.6 98.4,435.4 98.4,440.2 L98.4,446.3 L96.8,446.3 L96.8,440.2 C96.8,435.5 93,431.6 88.3,431.6 C83.6,431.6 79.8,435.4 79.8,440.2 L79.8,446.3 L78.2,446.3 L78.2,440.2 C78.2,435.5 74.4,431.6 69.7,431.6 C65,431.6 61.2,435.4 61.2,440.2 L61.2,446.3 L59.6,446.3 L59.6,440.2 C59.6,435.5 55.8,431.6 51.1,431.6 C46.4,431.6 42.6,435.4 42.6,440.2 L42.6,446.3 L41,446.3 L41,440.2 C41,435.5 37.2,431.6 32.5,431.6 C27.8,431.6 24,435.4 24,440.2 L24,446.3 L22.4,446.3 L22.4,440.2 C22.4,435.5 18.6,431.6 13.9,431.6 C9.2,431.6 5.4,435.4 5.4,440.2 L5.4,446.3 L5.4,460.9 L5.4,725.9 L115.8,725.9" id="Shape"></path>
            <polygon class="path" stroke="#8F8F8F" stroke-width="0.25" id="Shape" points="59.7 327.8 59.7 327.8 0.7 428.5 118.7 428.5"></polygon>
            <path class="path" stroke="#8F8F8F" stroke-width="0.25" d="M88.2,431.7 C83.5,431.7 79.7,435.5 79.7,440.3 L79.7,442 L96.7,442 L96.7,440.3 C96.8,435.5 93,431.7 88.2,431.7 Z" id="Shape"></path>
            <path class="path" stroke="#8F8F8F" stroke-width="0.25" d="M32.3,431.7 C27.6,431.7 23.8,435.5 23.8,440.3 L23.8,442 L40.8,442 L40.8,440.3 C40.8,435.5 37,431.7 32.3,431.7 Z" id="Shape"></path>
            <path class="path" stroke="#8F8F8F" stroke-width="0.25" d="M106.9,431.7 C102.2,431.7 98.4,435.5 98.4,440.3 L98.4,442 L115.4,442 L115.4,440.3 C115.4,435.5 111.6,431.7 106.9,431.7 Z" id="Shape"></path>
            <path class="path" stroke="#8F8F8F" stroke-width="0.25" d="M13.6,431.7 C8.9,431.7 5.1,435.5 5.1,440.3 L5.1,442 L22.1,442 L22.1,440.3 C22.1,435.5 18.3,431.7 13.6,431.7 Z" id="Shape"></path>
            <path class="path" stroke="#8F8F8F" stroke-width="0.25" d="M69.6,431.7 C64.9,431.7 61.1,435.5 61.1,440.3 L61.1,442 L78.1,442 L78.1,440.3 C78.1,435.5 74.3,431.7 69.6,431.7 Z" id="Shape"></path>
            <path class="path" stroke="#8F8F8F" stroke-width="0.25" d="M50.9,431.7 C46.2,431.7 42.4,435.5 42.4,440.3 L42.4,442 L59.4,442 L59.4,440.3 C59.4,435.5 55.6,431.7 50.9,431.7 Z" id="Shape"></path>
            <path class="path" stroke="#8F8F8F" stroke-width="0.25" d="M0.7,428.5 L0.7,446.8 L5.1,446.8 L5.1,446.2 L5.1,440.1 C5.1,435.4 8.9,431.5 13.6,431.5 C18.3,431.5 22.1,435.3 22.1,440.1 L22.1,446.2 L23.7,446.2 L23.7,440.1 C23.7,435.4 27.5,431.5 32.2,431.5 C36.9,431.5 40.7,435.3 40.7,440.1 L40.7,446.2 L42.3,446.2 L42.3,440.1 C42.3,435.4 46.1,431.5 50.8,431.5 C55.5,431.5 59.3,435.3 59.3,440.1 L59.3,446.2 L60.9,446.2 L60.9,440.1 C60.9,435.4 64.7,431.5 69.4,431.5 C74.1,431.5 77.9,435.3 77.9,440.1 L77.9,446.2 L79.5,446.2 L79.5,440.1 C79.5,435.4 83.3,431.5 88,431.5 C92.7,431.5 96.5,435.3 96.5,440.1 L96.5,446.2 L98.1,446.2 L98.1,440.1 C98.1,435.4 101.9,431.5 106.6,431.5 C111.3,431.5 115.1,435.3 115.1,440.1 L115.1,446.2 L115.1,446.8 L118.9,446.8 L118.9,428.5 L0.7,428.5 Z" id="Shape"></path>
            <path class="path" stroke="#8F8F8F" stroke-width="0.25" d="M115.4,491.7 L82,491.7 L82,491.2 C82,479 72.1,469.1 59.9,469.1 C47.7,469.1 37.8,479 37.8,491.2 L37.8,491.7 L5.1,491.7 L5.1,490.7 L36.9,490.7 C37.2,478.2 47.4,468.1 60,468.1 C72.6,468.1 82.8,478.2 83.1,490.7 L115.5,490.7 L115.5,491.7 L115.4,491.7 Z" id="Shape"></path>
            <path class="path" stroke="#8F8F8F" stroke-width="0.25" d="M39.6,574.4 C35.6,574.4 32.4,577.7 32.4,581.7 L32.4,599.3 L46.9,599.3 L46.9,581.7 C46.8,577.6 43.6,574.4 39.6,574.4 Z" id="Shape"></path>
            <path class="path" stroke="#8F8F8F" stroke-width="0.25" d="M59.7,574.4 C55.7,574.4 52.5,577.7 52.5,581.7 L52.5,599.3 L67,599.3 L67,581.7 C66.9,577.6 63.7,574.4 59.7,574.4 Z" id="Shape"></path>
            <path class="path" stroke="#8F8F8F" stroke-width="0.25" d="M79.8,574.4 C75.8,574.4 72.6,577.7 72.6,581.7 L72.6,599.3 L87.1,599.3 L87.1,581.7 C87.1,577.6 83.8,574.4 79.8,574.4 Z" id="Shape"></path>
            <path class="path" stroke="#8F8F8F" stroke-width="0.25" d="M70.8,491.6 C66.8,491.6 63.6,494.9 63.6,498.9 L63.6,516.5 L78.1,516.5 L78.1,498.9 C78.1,494.8 74.8,491.6 70.8,491.6 Z" id="Shape"></path>
            <path class="path" stroke="#8F8F8F" stroke-width="0.25" d="M60,495.3 L60.6,492.8 C60.6,488.8 65,485.5 69,485.5 C73,485.5 78,488.8 78,492.8 L78,490.7 C78,482.3 69.9,473.6 59.9,473.6 C49.9,473.6 41.8,482.4 41.8,490.7 L41.8,492.8 C41.8,488.8 46.8,485.5 50.8,485.5 C54.8,485.5 59.2,488.8 59.2,492.8 L60,495.3 Z" id="Shape"></path>
            <path class="path" stroke="#8F8F8F" stroke-width="0.25" d="M49.1,491.6 C45.1,491.6 41.9,494.9 41.9,498.9 L41.9,516.5 L56.4,516.5 L56.4,498.9 C56.4,494.8 53.1,491.6 49.1,491.6 Z" id="Shape"></path>
            <path class="path" stroke="#8F8F8F" stroke-width="0.25" d="M63.6,498.8 C63.6,494.8 66.8,491.5 70.8,491.5 C74.8,491.5 78,494.8 78,498.8 L78,492.8 C78,488.8 73,485.5 69,485.5 C65,485.5 60.6,488.8 60.6,492.8 L60,495.3 L59.4,492.8 C59.4,488.8 55,485.5 51,485.5 C47,485.5 42,488.8 42,492.8 L42,498.8 C42,494.8 45.2,491.5 49.2,491.5 C53.2,491.5 56.4,494.8 56.4,498.8 L63.6,498.8 Z" id="Shape"></path>
            <rect class="path" stroke="#8F8F8F" stroke-width="0.25" id="Rectangle-path" x="39.9" y="516.6" width="40.2" height="10.3"></rect>
            <rect class="path" stroke="#8F8F8F" stroke-width="0.25" id="Rectangle-path" x="42.4" y="527.1" width="35.2" height="10.3"></rect>
            <rect class="path" stroke="#8F8F8F" stroke-width="0.25" id="Rectangle-path" x="5.1" y="614.7" width="110.4" height="10.3"></rect>
            <rect class="path" stroke="#8F8F8F" stroke-width="0.25" id="Rectangle-path" x="56.4" y="498.8" width="7.2" height="17.6"></rect>
            <circle class="path" stroke="#8F8F8F" stroke-width="0.25" id="Oval" cx="60" cy="480.7" r="6.4"></circle>
            <circle class="path" stroke="#8F8F8F" stroke-width="0.25" id="Oval" cx="60" cy="480.7" r="5.7"></circle>
            <circle class="path" stroke="#8F8F8F" stroke-width="0.25" id="Oval" cx="60" cy="480.7" r="5.5"></circle>
            <path class="path" stroke="#8F8F8F" stroke-width="0.25" d="M80.1,516.4 L78.1,516.4 L78.1,490.7 C78.1,482.6 70.3,473.6 60,473.6 C49.7,473.6 41.9,482.6 41.9,490.7 L41.9,516.4 L39.9,516.4 L39.9,490.7 C39.9,481.7 48.5,471.6 60,471.6 C71.5,471.6 80.1,481.7 80.1,490.7 L80.1,516.4 Z" id="Shape"></path>
            <rect class="path" stroke="#8F8F8F" stroke-width="0.25" id="Rectangle-path" x="5.1" y="613.7" width="110.4" height="1"></rect>
            <rect class="path" stroke="#8F8F8F" stroke-width="0.25" id="Rectangle-path" x="28.4" y="598.7" width="63.1" height="1"></rect>
            <rect class="path" stroke="#8F8F8F" stroke-width="0.25" id="Rectangle-path" x="39.9" y="537.4" width="40.2" height="1"></rect>
            <rect class="path" stroke="#8F8F8F" stroke-width="0.25" id="Rectangle-path" x="12.4" y="556.1" width="2.3" height="2.3"></rect>
            <rect class="path" stroke="#8F8F8F" stroke-width="0.25" id="Rectangle-path" x="16.9" y="556.1" width="2.3" height="2.3"></rect>
            <rect class="path" stroke="#8F8F8F" stroke-width="0.25" id="Rectangle-path" x="21.3" y="556.1" width="2.3" height="2.3"></rect>
            <rect class="path" stroke="#8F8F8F" stroke-width="0.25" id="Rectangle-path" x="25.8" y="556.1" width="2.3" height="2.3"></rect>
            <rect class="path" stroke="#8F8F8F" stroke-width="0.25" id="Rectangle-path" x="30.2" y="556.1" width="2.3" height="2.3"></rect>
            <rect class="path" stroke="#8F8F8F" stroke-width="0.25" id="Rectangle-path" x="34.6" y="556.1" width="2.3" height="2.3"></rect>
            <rect class="path" stroke="#8F8F8F" stroke-width="0.25" id="Rectangle-path" x="39.1" y="556.1" width="2.3" height="2.3"></rect>
            <rect class="path" stroke="#8F8F8F" stroke-width="0.25" id="Rectangle-path" x="43.5" y="556.1" width="2.3" height="2.3"></rect>
            <rect class="path" stroke="#8F8F8F" stroke-width="0.25" id="Rectangle-path" x="48" y="556.1" width="2.3" height="2.3"></rect>
            <rect class="path" stroke="#8F8F8F" stroke-width="0.25" id="Rectangle-path" x="52.4" y="556.1" width="2.3" height="2.3"></rect>
            <rect class="path" stroke="#8F8F8F" stroke-width="0.25" id="Rectangle-path" x="56.9" y="556.1" width="2.3" height="2.3"></rect>
            <rect class="path" stroke="#8F8F8F" stroke-width="0.25" id="Rectangle-path" x="61.3" y="556.1" width="2.3" height="2.3"></rect>
            <rect class="path" stroke="#8F8F8F" stroke-width="0.25" id="Rectangle-path" x="65.7" y="556.1" width="2.3" height="2.3"></rect>
            <rect class="path" stroke="#8F8F8F" stroke-width="0.25" id="Rectangle-path" x="70.2" y="556.1" width="2.3" height="2.3"></rect>
            <rect class="path" stroke="#8F8F8F" stroke-width="0.25" id="Rectangle-path" x="74.6" y="556.1" width="2.3" height="2.3"></rect>
            <rect class="path" stroke="#8F8F8F" stroke-width="0.25" id="Rectangle-path" x="79.1" y="556.1" width="2.3" height="2.3"></rect>
            <rect class="path" stroke="#8F8F8F" stroke-width="0.25" id="Rectangle-path" x="83.5" y="556.1" width="2.3" height="2.3"></rect>
            <rect class="path" stroke="#8F8F8F" stroke-width="0.25" id="Rectangle-path" x="88" y="556.1" width="2.3" height="2.3"></rect>
            <rect class="path" stroke="#8F8F8F" stroke-width="0.25" id="Rectangle-path" x="92.4" y="556.1" width="2.3" height="2.3"></rect>
            <rect class="path" stroke="#8F8F8F" stroke-width="0.25" id="Rectangle-path" x="96.8" y="556.1" width="2.3" height="2.3"></rect>
            <rect class="path" stroke="#8F8F8F" stroke-width="0.25" id="Rectangle-path" x="101.3" y="556.1" width="2.3" height="2.3"></rect>
            <rect class="path" stroke="#8F8F8F" stroke-width="0.25" id="Rectangle-path" x="105.7" y="556.1" width="2.3" height="2.3"></rect>
            <rect class="path" stroke="#8F8F8F" stroke-width="0.25" id="Rectangle-path" x="14.8" y="553.7" width="2.3" height="2.3"></rect>
            <rect class="path" stroke="#8F8F8F" stroke-width="0.25" id="Rectangle-path" x="19.2" y="553.7" width="2.3" height="2.3"></rect>
            <rect class="path" stroke="#8F8F8F" stroke-width="0.25" id="Rectangle-path" x="23.7" y="553.7" width="2.3" height="2.3"></rect>
            <rect class="path" stroke="#8F8F8F" stroke-width="0.25" id="Rectangle-path" x="28.1" y="553.7" width="2.3" height="2.3"></rect>
            <rect class="path" stroke="#8F8F8F" stroke-width="0.25" id="Rectangle-path" x="32.5" y="553.7" width="2.3" height="2.3"></rect>
            <rect class="path" stroke="#8F8F8F" stroke-width="0.25" id="Rectangle-path" x="37" y="553.7" width="2.3" height="2.3"></rect>
            <rect class="path" stroke="#8F8F8F" stroke-width="0.25" id="Rectangle-path" x="41.4" y="553.7" width="2.3" height="2.3"></rect>
            <rect class="path" stroke="#8F8F8F" stroke-width="0.25" id="Rectangle-path" x="45.9" y="553.7" width="2.3" height="2.3"></rect>
            <rect class="path" stroke="#8F8F8F" stroke-width="0.25" id="Rectangle-path" x="50.3" y="553.7" width="2.3" height="2.3"></rect>
            <rect class="path" stroke="#8F8F8F" stroke-width="0.25" id="Rectangle-path" x="54.8" y="553.7" width="2.3" height="2.3"></rect>
            <rect class="path" stroke="#8F8F8F" stroke-width="0.25" id="Rectangle-path" x="59.2" y="553.7" width="2.3" height="2.3"></rect>
            <rect class="path" stroke="#8F8F8F" stroke-width="0.25" id="Rectangle-path" x="63.6" y="553.7" width="2.3" height="2.3"></rect>
            <rect class="path" stroke="#8F8F8F" stroke-width="0.25" id="Rectangle-path" x="68.1" y="553.7" width="2.3" height="2.3"></rect>
            <rect class="path" stroke="#8F8F8F" stroke-width="0.25" id="Rectangle-path" x="72.5" y="553.7" width="2.3" height="2.3"></rect>
            <rect class="path" stroke="#8F8F8F" stroke-width="0.25" id="Rectangle-path" x="77" y="553.7" width="2.3" height="2.3"></rect>
            <rect class="path" stroke="#8F8F8F" stroke-width="0.25" id="Rectangle-path" x="81.4" y="553.7" width="2.3" height="2.3"></rect>
            <rect class="path" stroke="#8F8F8F" stroke-width="0.25" id="Rectangle-path" x="85.9" y="553.7" width="2.3" height="2.3"></rect>
            <rect class="path" stroke="#8F8F8F" stroke-width="0.25" id="Rectangle-path" x="90.3" y="553.7" width="2.3" height="2.3"></rect>
            <rect class="path" stroke="#8F8F8F" stroke-width="0.25" id="Rectangle-path" x="94.8" y="553.7" width="2.3" height="2.3"></rect>
            <rect class="path" stroke="#8F8F8F" stroke-width="0.25" id="Rectangle-path" x="99.2" y="553.7" width="2.3" height="2.3"></rect>
            <rect class="path" stroke="#8F8F8F" stroke-width="0.25" id="Rectangle-path" x="103.6" y="553.7" width="2.3" height="2.3"></rect>
            <path class="path" stroke="#8F8F8F" stroke-width="0.25" d="M41.9,725.9 L41.9,662.5 C41.9,654.4 49.7,645.4 60,645.4 C70.3,645.4 78.1,654.4 78.1,662.5 L78.1,725.9 L80.1,725.9 L80.1,662.5 C80.1,653.5 71.5,643.4 60,643.4 C48.5,643.4 39.9,653.5 39.9,662.5 L39.9,725.9 L41.9,725.9 Z" id="Shape"></path>
            <path class="path" stroke="#8F8F8F" stroke-width="0.25" d="M78.1,725.9 L78.1,662.5 C78.1,654.4 70.3,645.4 60,645.4 C49.7,645.4 41.9,654.4 41.9,662.5 L41.9,725.9" id="Shape"></path>
            <rect class="path" stroke="#8F8F8F" stroke-width="0.25" id="Rectangle-path" x="5.1" y="704.4" width="34.8" height="1"></rect>
            <rect class="path" stroke="#8F8F8F" stroke-width="0.25" id="Rectangle-path" x="80.1" y="704.4" width="35.3" height="1"></rect>
            <rect class="path" stroke="#8F8F8F" stroke-width="0.25" id="Rectangle-path" x="5.1" y="707.1" width="34.8" height="1"></rect>
            <rect class="path" stroke="#8F8F8F" stroke-width="0.25" id="Rectangle-path" x="80.1" y="707.1" width="35.3" height="1"></rect>
            <path class="path" stroke="#8F8F8F" stroke-width="0.25" d="M220.7,541 C182.2,541 151.4,577.5 151.4,607.6 L151.4,697.8 L160.4,697.8 L160.4,684.7 L160.3,684.7 L160.3,607.7 C160.3,580.7 186.1,550.4 220.6,550.4 C255.1,550.4 280.9,580.6 280.9,607.7 L280.9,684.7 L280.8,684.7 L280.8,697.8 L289.8,697.8 L289.8,607.6 C289.9,577.5 259.1,541 220.7,541 Z" id="Shape"></path>
            <path class="path" stroke="#8F8F8F" stroke-width="0.25" d="M220.7,528.7 C177.2,528.7 139.3,574 139.3,608.1 L139.3,711.5 L151.5,711.5 L151.5,695.4 L151.4,695.4 L151.4,608.3 C151.4,577.7 181.6,541.5 220.7,541.5 C259.8,541.5 290,577.7 290,608.3 L290,695.4 L289.9,695.4 L289.9,711.5 L302.1,711.5 L302.1,608.1 C302.1,574 264.2,528.7 220.7,528.7 Z" id="Shape"></path>
            <path class="path" stroke="#8F8F8F" stroke-width="0.25" d="M302.1,725 L315.1,725 L315.1,606.2 C315.1,566.6 271.2,514.1 220.7,514.1 C170.2,514.1 126.3,566.6 126.3,606.2 L126.3,725 L139.3,725 L139.3,711.4 L139.3,711.4 L139.3,608.1 C139.3,584.9 156.8,556.6 181.7,540.8 C181.9,540.6 182.2,540.5 182.4,540.3 C182.5,540.3 182.6,540.2 182.6,540.2 C187.1,537.4 191.9,535 197,533.1 C197.1,533.1 197.1,533.1 197.2,533 C197.6,532.8 198.1,532.7 198.5,532.5 C205.6,530 213.1,528.6 220.7,528.6 C228.3,528.6 235.8,530 242.9,532.5 C243.3,532.7 243.8,532.8 244.2,533 C244.3,533 244.3,533 244.4,533.1 C249.4,534.9 254.2,537.3 258.8,540.2 C258.9,540.2 258.9,540.3 259,540.3 C259.2,540.5 259.5,540.6 259.7,540.8 C284.6,556.6 302.1,584.9 302.1,608.1 L302.1,711.5" id="Shape"></path>
            <path class="path" stroke="#8F8F8F" stroke-width="0.25" d="M220.7,499.2 C163.1,499.2 115,559.2 115,604.3 L115,726 L127.8,726 L127.8,725 L126.3,725 L126.3,606.2 C126.3,566.6 170.2,514.1 220.7,514.1 C271.2,514.1 315.1,566.6 315.1,606.2 L315.1,725 L313.6,725 L313.6,725.9 L327.4,725.9 L327.4,604.3 C327.4,559.1 278.3,499.2 220.7,499.2 Z" id="Shape"></path>
            <path class="path" stroke="#8F8F8F" stroke-width="0.25" d="M132.5,552.2 C132.5,552.2 132.6,552.1 132.5,552.2 C133.9,550.1 135.2,548.2 136.6,546.3 C136.6,546.3 136.6,546.3 136.6,546.2 C138.7,543.3 141,540.5 143.4,537.8 L143.6,537.6 C145.2,535.8 146.8,534.1 148.5,532.4 L148.7,532.2 C149.5,531.4 150.3,530.6 151.1,529.8 L151.3,529.6 C153,528 154.7,526.4 156.5,524.9 C156.6,524.8 156.8,524.7 156.9,524.6 C158.7,523.1 160.5,521.6 162.3,520.2 C162.4,520.1 162.6,520 162.7,519.9 C163.5,519.3 164.3,518.7 165.1,518.1 C165.3,518 165.4,517.9 165.6,517.8 C166.6,517.1 167.5,516.5 168.5,515.8 L168.5,515.8 C169.4,515.2 170.4,514.6 171.3,514 C171.5,513.9 171.7,513.7 171.9,513.6 C172.8,513.1 173.6,512.6 174.5,512 C174.6,511.9 174.7,511.9 174.8,511.8 C175.8,511.2 176.8,510.7 177.8,510.2 C178,510.1 178.2,510 178.4,509.9 C179.2,509.5 180,509.1 180.9,508.7 C181.1,508.6 181.4,508.5 181.6,508.4 C182.6,507.9 183.6,507.4 184.7,507 C184.7,507 184.8,507 184.9,506.9 C185.9,506.5 186.8,506.1 187.8,505.7 C188.1,505.6 188.3,505.5 188.6,505.4 C189.5,505.1 190.3,504.7 191.2,504.4 C191.4,504.3 191.6,504.3 191.8,504.2 C192.8,503.8 193.9,503.5 194.9,503.2 C195.1,503.1 195.4,503.1 195.6,503 C196.4,502.7 197.3,502.5 198.1,502.3 C198.4,502.2 198.7,502.1 199,502.1 C200.1,501.8 201.1,501.6 202.2,501.3 L202.3,501.3 C203.3,501.1 204.4,500.9 205.4,500.7 C205.7,500.6 206,500.6 206.3,500.5 C207.2,500.3 208.1,500.2 208.9,500.1 C209.1,500.1 209.4,500 209.6,500 C210.7,499.9 211.8,499.7 212.9,499.6 C213.2,499.6 213.4,499.6 213.7,499.5 C214.6,499.4 215.5,499.4 216.3,499.3 L217.2,499.3 C218.3,499.3 219.4,499.2 220.6,499.2 C221.7,499.2 222.8,499.2 224,499.3 L224.9,499.3 C225.8,499.3 226.7,499.4 227.5,499.5 C227.8,499.5 228,499.5 228.3,499.6 C229.4,499.7 230.5,499.8 231.6,500 C231.8,500 232.1,500.1 232.3,500.1 C233.2,500.2 234.1,500.4 234.9,500.5 C235.2,500.6 235.5,500.6 235.8,500.7 C236.8,500.9 237.9,501.1 238.9,501.3 L239,501.3 C240.1,501.5 241.2,501.8 242.2,502.1 C242.5,502.2 242.8,502.3 243.1,502.3 C244,502.5 244.8,502.8 245.6,503 C245.8,503.1 246.1,503.1 246.3,503.2 C247.4,503.5 248.4,503.9 249.4,504.2 C249.6,504.3 249.8,504.3 250,504.4 C250.9,504.7 251.7,505 252.6,505.4 C252.9,505.5 253.1,505.6 253.4,505.7 C254.4,506.1 255.4,506.5 256.3,506.9 C256.3,506.9 256.4,506.9 256.4,507 C257.4,507.4 258.5,507.9 259.5,508.4 C259.7,508.5 260,508.6 260.2,508.7 C261,509.1 261.9,509.5 262.7,509.9 C262.9,510 263.1,510.1 263.3,510.2 C264.3,510.7 265.3,511.3 266.3,511.8 C266.4,511.9 266.5,511.9 266.6,512 C267.5,512.5 268.4,513 269.3,513.6 C269.5,513.7 269.7,513.9 269.9,514 C270.9,514.6 271.8,515.2 272.7,515.8 L272.7,515.8 C273.7,516.4 274.6,517.1 275.6,517.8 C275.8,517.9 275.9,518 276.1,518.1 C276.9,518.7 277.8,519.3 278.6,519.9 C278.7,520 278.9,520.1 279,520.2 C280.9,521.6 282.7,523.1 284.5,524.6 C284.6,524.7 284.8,524.8 284.9,524.9 C286.7,526.4 288.5,528 290.2,529.6 C290.3,529.7 290.3,529.7 290.4,529.8 C291.2,530.6 292,531.4 292.8,532.2 C292.9,532.3 292.9,532.3 293,532.4 C294.7,534.1 296.3,535.9 297.9,537.6 C298,537.7 298,537.7 298.1,537.8 C300.5,540.5 302.8,543.3 305,546.2 C305,546.2 305,546.2 305,546.3 C306.4,548.2 307.8,550.2 309.2,552.2 C309.2,552.2 309.2,552.3 309.3,552.3 C311.3,555.3 313.1,558.3 314.8,561.4 L314.8,561.4 L314.8,561.4 C320.9,572.4 324.9,583.9 326.5,594.8 L326.5,594.8 L326.7,574.2 L326.7,520.3 L221.2,410.1 L115.4,520.3 L115.4,595.7 L115.5,595.7 C117.3,581.4 123.3,566.2 132.5,552.2 Z" id="Shape"></path>
            <polygon class="path" stroke="#8F8F8F" stroke-width="0.25" id="Shape" points="327.2 534.7 221.2 424.5 115.3 534.5 115.4 520.3 221.2 410 326.9 520.3"></polygon>
            <circle class="path" stroke="#8F8F8F" stroke-width="0.25" id="Oval" cx="220.8" cy="468.2" r="22.2"></circle>
            <circle class="path" stroke="#8F8F8F" stroke-width="0.25" id="Oval" cx="220.8" cy="468.2" r="17.2"></circle>
            <circle class="path" stroke="#8F8F8F" stroke-width="0.25" id="Oval" cx="220.8" cy="468.2" r="16.6"></circle>
          </g>
      </g>
    </svg>